<?xml version="1.0" encoding="utf-8"?>
<!-- Generator: Adobe Illustrator 15.0.0, SVG Export Plug-In . SVG Version: 6.00 Build 0)  -->
<!DOCTYPE svg PUBLIC "-//W3C//DTD SVG 1.1 Tiny//EN" "http://www.w3.org/Graphics/SVG/1.1/DTD/svg11-tiny.dtd">
<svg version="1.1" baseProfile="tiny" id="Capa_1" xmlns="http://www.w3.org/2000/svg" xmlns:xlink="http://www.w3.org/1999/xlink"
	 x="0px" y="0px" width="65.25px" height="65.25px" viewBox="-7.5 -7.75 65.25 65.25" xml:space="preserve">
<g id="New_Symbol_3_">
	<path d="M39.94,28.445l4.297,4.297c0.198,0.197,0.456,0.297,0.716,0.297c0.259,0,0.518-0.1,0.716-0.297l1.908-1.908
		c0.396-0.395,0.396-1.036,0-1.432l-2.041-2.041h9.452c0.559,0,1.012-0.453,1.012-1.012V23.65c0-0.559-0.453-1.013-1.012-1.013
		h-9.452l2.041-2.041c0.396-0.395,0.396-1.035,0-1.431l-1.909-1.909c-0.395-0.395-1.035-0.395-1.431,0l-4.297,4.297l-2.426,2.379
		c-0.563,0.516-0.531,1.391,0,1.953L39.94,28.445z"/>
</g>
<g id="New_Symbol_2_">
	<path d="M28.695,10.06l4.297-4.297c0.197-0.198,0.297-0.456,0.297-0.716c0-0.259-0.1-0.518-0.297-0.716l-1.908-1.908
		c-0.395-0.396-1.036-0.396-1.432,0l-2.041,2.041v-9.452C27.611-5.547,27.158-6,26.6-6H23.9c-0.559,0-1.013,0.453-1.013,1.012v9.452
		l-2.041-2.041c-0.395-0.396-1.035-0.396-1.431,0l-1.909,1.909c-0.395,0.395-0.395,1.035,0,1.431l4.297,4.297l2.379,2.426
		c0.516,0.563,1.391,0.531,1.953,0L28.695,10.06z"/>
</g>
<g id="New_Symbol_1_">
	<path d="M10.31,21.305l-4.297-4.297c-0.198-0.197-0.456-0.297-0.716-0.297c-0.259,0-0.518,0.1-0.716,0.297l-1.908,1.908
		c-0.396,0.395-0.396,1.036,0,1.432l2.041,2.041h-9.452c-0.559,0-1.012,0.453-1.012,1.012V26.1c0,0.559,0.453,1.013,1.012,1.013
		h9.452l-2.041,2.041c-0.396,0.395-0.396,1.035,0,1.431l1.909,1.909c0.395,0.395,1.035,0.395,1.431,0l4.297-4.297l2.426-2.379
		c0.563-0.516,0.531-1.391,0-1.953L10.31,21.305z"/>
</g>
<g id="New_Symbol">
	<path d="M21.555,39.69l-4.297,4.297c-0.197,0.198-0.297,0.456-0.297,0.716c0,0.259,0.1,0.518,0.297,0.716l1.908,1.908
		c0.395,0.396,1.036,0.396,1.432,0l2.041-2.041v9.452c0,0.559,0.453,1.012,1.012,1.012h2.699c0.559,0,1.013-0.453,1.013-1.012
		v-9.452l2.041,2.041c0.395,0.396,1.035,0.396,1.431,0l1.909-1.909c0.395-0.395,0.395-1.035,0-1.431l-4.297-4.297l-2.379-2.426
		c-0.516-0.563-1.391-0.531-1.953,0L21.555,39.69z"/>
</g>
<path d="M15.437,16.712c0-0.77,0.63-1.4,1.4-1.4h16.575c0.771,0,1.4,0.63,1.4,1.4v16.575c0,0.771-0.63,1.4-1.4,1.4H16.837
	c-0.77,0-1.4-0.63-1.4-1.4V16.712z M19.25,29.475c0,0.771,0.63,1.4,1.4,1.4h8.95c0.771,0,1.4-0.63,1.4-1.4v-8.95
	c0-0.77-0.63-1.4-1.4-1.4h-8.95c-0.77,0-1.4,0.63-1.4,1.4V29.475z"/>
</svg>
