<?xml version="1.0" encoding="utf-8"?>
<!-- Generator: Adobe Illustrator 14.0.0, SVG Export Plug-In . SVG Version: 6.00 Build 43363)  -->
<!DOCTYPE svg PUBLIC "-//W3C//DTD SVG 1.1 Tiny//EN" "http://www.w3.org/Graphics/SVG/1.1/DTD/svg11-tiny.dtd">
<svg version="1.1" baseProfile="tiny" id="Capa_1" xmlns="http://www.w3.org/2000/svg" xmlns:xlink="http://www.w3.org/1999/xlink"
	 x="0px" y="0px" width="64px" height="64px" viewBox="0 0 64 64" xml:space="preserve">
<style type="text/css">
	.st0{fill:#000000;}
</style>
<path class="st0" d="M22.313,9.17c0-0.771,0.63-1.399,1.399-1.399h16.575c0.771,0,1.4,0.629,1.4,1.399v16.575c0,0.771-0.631,1.4-1.4,1.4H23.712
	c-0.77,0-1.399-0.631-1.399-1.4V9.17z M26.125,21.933c0,0.771,0.63,1.4,1.4,1.4h8.949c0.771,0,1.4-0.63,1.4-1.4v-8.949
	c0-0.771-0.63-1.399-1.4-1.399h-8.949c-0.771,0-1.4,0.63-1.4,1.399V21.933z"/>
<g>
	<polygon class="st0" points="40.937,45.414 31.373,54.385 31.313,14.148 60.49,41.477 47.19,42.686 54.236,58.118 47.657,61.009 	"/>
	<path fill="#FFFFFF" d="M32.316,16.458L58.18,40.683l-10.565,0.961l-1.918,0.173l0.798,1.754l6.411,14.04l-4.729,2.078
		L42.06,45.497l-0.767-1.789l-1.418,1.331l-7.506,7.04L32.316,16.458 M30.31,11.838l0.007,4.623l0.053,35.621l0.007,4.608
		l3.361-3.152l6.844-6.419L46.34,60.48l0.798,1.85l1.844-0.811l4.729-2.078l1.857-0.816l-0.843-1.846l-6.039-13.225l9.676-0.88
		l4.439-0.404l-3.254-3.048L33.684,14.999L30.31,11.838L30.31,11.838z"/>
</g>
</svg>
