<?xml version="1.0" encoding="utf-8"?>
<!-- Generator: Adobe Illustrator 15.0.0, SVG Export Plug-In . SVG Version: 6.00 Build 0)  -->
<!DOCTYPE svg PUBLIC "-//W3C//DTD SVG 1.1 Tiny//EN" "http://www.w3.org/Graphics/SVG/1.1/DTD/svg11-tiny.dtd">
<svg version="1.1" baseProfile="tiny" id="Capa_1" xmlns="http://www.w3.org/2000/svg" xmlns:xlink="http://www.w3.org/1999/xlink"
	 x="0px" y="0px" width="64px" height="64px" viewBox="-31.5 18.5 64 64" xml:space="preserve">
<g id="New_Symbol_2_">
	<path fill="#000000" d="M4.07,35.686l4.297-4.297c0.197-0.199,0.297-0.457,0.297-0.717c0-0.259-0.1-0.518-0.297-0.716l-1.908-1.908
		c-0.395-0.396-1.036-0.396-1.432,0l-2.041,2.041v-9.452c0-0.559-0.453-1.012-1.012-1.012h-2.7c-0.559,0-1.013,0.453-1.013,1.012
		v9.452l-2.041-2.041c-0.395-0.396-1.035-0.396-1.431,0l-1.909,1.909c-0.395,0.395-0.395,1.035,0,1.432l4.297,4.297l2.379,2.426
		c0.516,0.563,1.39,0.531,1.953,0L4.07,35.686z"/>
</g>
<g id="New_Symbol">
	<path fill="#000000" d="M-3.07,65.314l-4.297,4.297c-0.197,0.199-0.297,0.457-0.297,0.717c0,0.259,0.1,0.518,0.297,0.716l1.908,1.908
		c0.395,0.396,1.036,0.396,1.432,0l2.041-2.041v9.452c0,0.559,0.453,1.012,1.012,1.012h2.699c0.56,0,1.014-0.453,1.014-1.012v-9.452
		l2.041,2.041c0.395,0.396,1.035,0.396,1.431,0l1.909-1.909c0.395-0.395,0.395-1.035,0-1.432l-4.297-4.297l-2.379-2.426
		c-0.516-0.563-1.391-0.531-1.953,0L-3.07,65.314z"/>
</g>
<path fill="#000000" d="M-9.188,42.337c0-0.771,0.63-1.399,1.4-1.399H8.787c0.771,0,1.4,0.629,1.4,1.399v16.575c0,0.771-0.631,1.4-1.4,1.4H-7.788
	c-0.77,0-1.4-0.631-1.4-1.4V42.337z M-5.375,55.1c0,0.771,0.63,1.4,1.4,1.4h8.95c0.771,0,1.4-0.63,1.4-1.4V46.15
	c0-0.771-0.63-1.4-1.4-1.4h-8.95c-0.77,0-1.4,0.63-1.4,1.4V55.1z"/>
</svg>
