<?xml version="1.0" encoding="utf-8"?>
<!-- Generator: Adobe Illustrator 15.0.0, SVG Export Plug-In . SVG Version: 6.00 Build 0)  -->
<!DOCTYPE svg PUBLIC "-//W3C//DTD SVG 1.1 Tiny//EN" "http://www.w3.org/Graphics/SVG/1.1/DTD/svg11-tiny.dtd">
<svg version="1.1" baseProfile="tiny" id="Capa_1" xmlns="http://www.w3.org/2000/svg" xmlns:xlink="http://www.w3.org/1999/xlink"
	 x="0px" y="0px" width="50px" height="50px" viewBox="-24.5 25.5 50 50" xml:space="preserve">
<g>
	<path fill="#000000" d="M-8.44,35.251v11.804l-4.297-4.297c-0.19-0.189-0.447-0.297-0.716-0.297c-0.268,0-0.526,0.107-0.716,0.297
		l-1.908,1.908c-0.396,0.395-0.395,1.036,0,1.432l2.041,2.041h-9.452c-0.559,0-1.012,0.453-1.012,1.012v2.699
		c0,0.559,0.453,1.012,1.012,1.012h9.452l-2.042,2.041c-0.395,0.396-0.395,1.037,0,1.432l1.909,1.908
		c0.189,0.19,0.447,0.297,0.715,0.297c0.269,0,0.526-0.106,0.716-0.297l4.297-4.297l0,11.804c0,0.56,0.453,1.013,1.012,1.013h2.699
		c0.559,0,1.012-0.453,1.012-1.013V35.251c0-0.56-0.453-1.013-1.012-1.013h-2.699C-7.987,34.238-8.44,34.691-8.44,35.251z"/>
	<path fill="#000000" d="M4.717,35.251v30.498c0,0.56,0.453,1.013,1.012,1.013h2.699c0.559,0,1.012-0.453,1.012-1.013V53.945
		l4.298,4.298c0.19,0.189,0.447,0.296,0.716,0.296c0.268,0,0.525-0.106,0.716-0.297l1.908-1.908c0.396-0.395,0.396-1.036,0-1.431
		l-2.041-2.042h9.452c0.559,0,1.012-0.452,1.012-1.012V49.15c0-0.559-0.453-1.012-1.012-1.012h-9.452l2.041-2.041
		c0.198-0.197,0.296-0.457,0.296-0.716s-0.098-0.519-0.296-0.716l-1.908-1.908c-0.19-0.189-0.448-0.297-0.716-0.297
		c-0.269,0-0.525,0.107-0.716,0.297l-4.298,4.297V35.251c0-0.56-0.453-1.013-1.012-1.013H5.729
		C5.17,34.238,4.717,34.691,4.717,35.251z"/>
</g>
</svg>
