<?xml version="1.0" encoding="utf-8"?>
<!-- Generator: Adobe Illustrator 15.0.0, SVG Export Plug-In . SVG Version: 6.00 Build 0)  -->
<!DOCTYPE svg PUBLIC "-//W3C//DTD SVG 1.1//EN" "http://www.w3.org/Graphics/SVG/1.1/DTD/svg11.dtd">
<svg version="1.1" id="Capa_1" xmlns="http://www.w3.org/2000/svg" xmlns:xlink="http://www.w3.org/1999/xlink" x="0px" y="0px"
	 width="64px" height="64px" viewBox="-31.5 18.5 64 64" enable-background="new -31.5 18.5 64 64" xml:space="preserve">
<g id="New_Symbol_3_">
	<path fill="#000000" d="M15.314,53.945l4.297,4.297c0.199,0.197,0.457,0.297,0.717,0.297c0.259,0,0.518-0.1,0.716-0.297l1.908-1.908
		c0.396-0.395,0.396-1.036,0-1.432l-2.041-2.041h9.452c0.559,0,1.012-0.453,1.012-1.012V49.15c0-0.56-0.453-1.014-1.012-1.014
		h-9.452l2.041-2.041c0.396-0.395,0.396-1.035,0-1.431l-1.909-1.909c-0.395-0.395-1.035-0.395-1.432,0l-4.297,4.297l-2.426,2.379
		c-0.563,0.516-0.531,1.391,0,1.953L15.314,53.945z"/>
</g>
<g id="New_Symbol_1_">
	<path fill="#000000" d="M-14.315,46.805l-4.297-4.297c-0.198-0.197-0.456-0.297-0.716-0.297c-0.259,0-0.518,0.1-0.716,0.297l-1.908,1.908
		c-0.396,0.395-0.396,1.036,0,1.432l2.041,2.041h-9.452c-0.559,0-1.012,0.453-1.012,1.012V51.6c0,0.56,0.453,1.014,1.012,1.014
		h9.452l-2.041,2.041c-0.396,0.395-0.396,1.035,0,1.431l1.909,1.909c0.395,0.395,1.035,0.395,1.431,0l4.297-4.297l2.426-2.379
		c0.563-0.516,0.531-1.391,0-1.953L-14.315,46.805z"/>
</g>
<path fill="#000000" d="M-9.188,42.212c0-0.771,0.63-1.399,1.4-1.399H8.787c0.771,0,1.4,0.629,1.4,1.399v16.575c0,0.771-0.631,1.4-1.4,1.4H-7.788
	c-0.77,0-1.4-0.631-1.4-1.4V42.212z M-5.375,54.975c0,0.771,0.63,1.4,1.4,1.4h8.95c0.771,0,1.4-0.63,1.4-1.4v-8.949
	c0-0.771-0.63-1.4-1.4-1.4h-8.95c-0.77,0-1.4,0.63-1.4,1.4V54.975z"/>
</svg>
