<?xml version="1.0" encoding="utf-8"?>
<!-- Generator: Adobe Illustrator 15.0.0, SVG Export Plug-In . SVG Version: 6.00 Build 0)  -->
<!DOCTYPE svg PUBLIC "-//W3C//DTD SVG 1.1//EN" "http://www.w3.org/Graphics/SVG/1.1/DTD/svg11.dtd">
<svg version="1.1" id="Capa_1" xmlns="http://www.w3.org/2000/svg" xmlns:xlink="http://www.w3.org/1999/xlink" x="0px" y="0px"
	 width="64px" height="64px" viewBox="-23.875 26.125 64 64" enable-background="new -23.875 26.125 64 64" xml:space="preserve">
<g id="New_Symbol_3_">
	<path fill="#000000" d="M22.939,61.695l4.297,4.297c0.199,0.197,0.457,0.297,0.717,0.297c0.259,0,0.518-0.1,0.716-0.297l1.908-1.908
		c0.396-0.395,0.396-1.036,0-1.432l-2.041-2.041h9.452c0.559,0,1.012-0.453,1.012-1.012V56.9c0-0.56-0.453-1.014-1.012-1.014h-9.452
		l2.041-2.041c0.396-0.395,0.396-1.035,0-1.431l-1.909-1.909c-0.395-0.395-1.035-0.395-1.432,0l-4.297,4.297l-2.426,2.379
		c-0.563,0.516-0.531,1.391,0,1.953L22.939,61.695z"/>
</g>
<g id="New_Symbol_2_">
	<path fill="#000000" d="M11.695,43.311l4.297-4.297c0.197-0.199,0.297-0.457,0.297-0.717c0-0.259-0.1-0.518-0.297-0.716l-1.908-1.908
		c-0.395-0.396-1.036-0.396-1.432,0l-2.041,2.041v-9.452c0-0.559-0.453-1.012-1.012-1.012H6.9c-0.559,0-1.013,0.453-1.013,1.012
		v9.452l-2.041-2.041c-0.395-0.396-1.035-0.396-1.431,0l-1.909,1.909c-0.395,0.395-0.395,1.035,0,1.432l4.297,4.297l2.379,2.426
		c0.516,0.563,1.391,0.531,1.953,0L11.695,43.311z"/>
</g>
<g id="New_Symbol_1_">
	<path fill="#000000" d="M-6.69,54.555l-4.297-4.297c-0.198-0.197-0.456-0.297-0.716-0.297c-0.259,0-0.518,0.1-0.716,0.297l-1.908,1.908
		c-0.396,0.395-0.396,1.036,0,1.432l2.041,2.041h-9.452c-0.559,0-1.012,0.453-1.012,1.012v2.699c0,0.56,0.453,1.014,1.012,1.014
		h9.452l-2.041,2.041c-0.396,0.395-0.396,1.035,0,1.431l1.909,1.909c0.395,0.395,1.035,0.395,1.431,0l4.297-4.297l2.426-2.379
		c0.563-0.516,0.531-1.391,0-1.953L-6.69,54.555z"/>
</g>
<g id="New_Symbol">
	<path fill="#000000" d="M4.555,72.939l-4.297,4.297c-0.197,0.199-0.297,0.457-0.297,0.717c0,0.259,0.1,0.518,0.297,0.716l1.908,1.908
		c0.395,0.396,1.036,0.396,1.432,0l2.041-2.041v9.452C5.639,88.547,6.092,89,6.651,89H9.35c0.56,0,1.014-0.453,1.014-1.012v-9.452
		l2.041,2.041c0.395,0.396,1.035,0.396,1.431,0l1.909-1.909c0.395-0.395,0.395-1.035,0-1.432l-4.297-4.297l-2.379-2.426
		c-0.516-0.563-1.391-0.531-1.953,0L4.555,72.939z"/>
</g>
<path fill="#000000" d="M-1.563,49.962c0-0.771,0.63-1.399,1.4-1.399h16.575c0.771,0,1.4,0.629,1.4,1.399v16.575c0,0.771-0.631,1.4-1.4,1.4H-0.163
	c-0.77,0-1.4-0.631-1.4-1.4V49.962z M2.25,62.725c0,0.771,0.63,1.4,1.4,1.4h8.95c0.771,0,1.4-0.63,1.4-1.4v-8.949
	c0-0.771-0.63-1.4-1.4-1.4H3.65c-0.77,0-1.4,0.63-1.4,1.4V62.725z"/>
</svg>
