<?xml version="1.0" encoding="utf-8"?>
<!-- Generator: Adobe Illustrator 16.0.0, SVG Export Plug-In . SVG Version: 6.00 Build 0)  -->
<!DOCTYPE svg PUBLIC "-//W3C//DTD SVG 1.1//EN" "http://www.w3.org/Graphics/SVG/1.1/DTD/svg11.dtd">
<svg version="1.1" id="Layer_2" xmlns="http://www.w3.org/2000/svg" xmlns:xlink="http://www.w3.org/1999/xlink" x="0px" y="0px"
	 width="126px" height="126px" viewBox="0 0 126 126" enable-background="new 0 0 126 126" xml:space="preserve">
<style type="text/css">
	.st0{fill:#000000;}
</style>
<g>
	<path class="st0" d="M92.602,52.705l-3.335,5.367c-0.636-0.275-1.335-0.429-2.072-0.429c-0.515,0-1.011,0.077-1.482,0.216l-3.288-5.899
		c-0.884,0.35-1.727,0.802-2.506,1.36l3.383,6.07c-0.832,0.927-1.342,2.147-1.342,3.488c0,2.887,2.348,5.236,5.235,5.236
		s5.236-2.349,5.236-5.236c0-1.109-0.349-2.137-0.94-2.984l3.395-5.461C94.191,53.763,93.427,53.181,92.602,52.705z M87.194,66.24
		c-1.853,0-3.361-1.508-3.361-3.361s1.508-3.361,3.361-3.361c1.854,0,3.362,1.508,3.362,3.361S89.048,66.24,87.194,66.24z"/>
	<path class="st0" d="M98.958,47.881l8.841-14.222c0.46,0.133,0.944,0.208,1.447,0.208c2.887,0,5.235-2.349,5.235-5.236
		c0-2.887-2.348-5.235-5.235-5.235s-5.236,2.349-5.236,5.235c0,1.355,0.522,2.588,1.37,3.519l-8.761,14.094
		C97.436,46.729,98.217,47.277,98.958,47.881z M109.246,25.27c1.853,0,3.361,1.508,3.361,3.361c0,1.854-1.508,3.362-3.361,3.362
		c-1.854,0-3.361-1.508-3.361-3.362C105.884,26.778,107.392,25.27,109.246,25.27z"/>
	<path class="st0" d="M70.198,40.263c0.324,0.063,0.657,0.099,0.999,0.099c0.482,0,0.947-0.071,1.39-0.193l3.623,6.5
		c0.8-0.521,1.632-0.985,2.496-1.379l-3.681-6.604c0.871-0.935,1.408-2.185,1.408-3.56c0-2.887-2.349-5.235-5.236-5.235
		s-5.235,2.348-5.235,5.235c0,1.521,0.655,2.888,1.694,3.846L55.884,63.525c-0.468-0.138-0.962-0.215-1.476-0.215
		c-0.494,0-0.97,0.073-1.423,0.202L42.428,43.997c0.715-0.896,1.146-2.028,1.146-3.26c0-2.887-2.348-5.236-5.235-5.236
		s-5.236,2.349-5.236,5.236c0,0.546,0.085,1.074,0.242,1.57L13.452,54.698c-0.93-0.846-2.161-1.367-3.515-1.367
		c-2.887,0-5.235,2.349-5.235,5.236s2.349,5.235,5.235,5.235c2.887,0,5.236-2.348,5.236-5.235c0-0.504-0.076-0.99-0.209-1.452
		l19.951-12.428c0.918,0.798,2.115,1.285,3.425,1.285c0.615,0,1.202-0.112,1.75-0.308l10.467,19.348
		c-0.856,0.932-1.383,2.17-1.383,3.533c0,2.887,2.349,5.236,5.235,5.236c2.887,0,5.236-2.349,5.236-5.236
		c0-1.337-0.508-2.555-1.336-3.482L70.198,40.263z M71.197,31.764c1.854,0,3.361,1.508,3.361,3.361c0,1.854-1.508,3.361-3.361,3.361
		s-3.361-1.508-3.361-3.361C67.836,33.272,69.344,31.764,71.197,31.764z M9.937,61.928c-1.853,0-3.361-1.508-3.361-3.361
		c0-1.854,1.508-3.361,3.361-3.361c1.854,0,3.362,1.508,3.362,3.361C13.298,60.42,11.79,61.928,9.937,61.928z M38.338,44.098
		c-1.854,0-3.361-1.508-3.361-3.361c0-1.854,1.508-3.362,3.361-3.362c1.853,0,3.361,1.508,3.361,3.362
		C41.7,42.589,40.191,44.098,38.338,44.098z M54.408,71.907c-1.853,0-3.361-1.508-3.361-3.362c0-1.853,1.508-3.361,3.361-3.361
		c1.854,0,3.362,1.508,3.362,3.361C57.77,70.398,56.262,71.907,54.408,71.907z"/>
	<path class="st0" d="M120.714,98.668L99.792,74.649c5.828-6.626,6.016-16.726,0.064-23.558c-6.482-7.442-17.811-8.223-25.252-1.741
		c-7.441,6.482-8.222,17.811-1.74,25.252c5.952,6.833,15.982,8.032,23.344,3.167l20.922,24.019c0.862,0.989,2.363,1.093,3.353,0.231
		C121.473,101.158,121.576,99.658,120.714,98.668z M94.996,72.76c-5.466,4.761-13.787,4.188-18.548-1.278
		c-4.761-5.466-4.188-13.786,1.278-18.547c5.466-4.762,13.786-4.188,18.547,1.278C101.035,59.678,100.461,67.999,94.996,72.76z"/>
</g>
</svg>
