<?xml version="1.0" encoding="utf-8"?>
<!-- Generator: Adobe Illustrator 16.0.0, SVG Export Plug-In . SVG Version: 6.00 Build 0)  -->
<!DOCTYPE svg PUBLIC "-//W3C//DTD SVG 1.1//EN" "http://www.w3.org/Graphics/SVG/1.1/DTD/svg11.dtd">
<svg version="1.1" id="Layer_6" xmlns="http://www.w3.org/2000/svg" xmlns:xlink="http://www.w3.org/1999/xlink" x="0px" y="0px"
	 width="100px" height="100px" viewBox="0 0 100 100" enable-background="new 0 0 100 100" xml:space="preserve">
<path d="M88.083,76.667v4H14.75V12h4v64.667H88.083z M31.75,16.833h-6.833v29.5h6.833V16.833z M31.75,73.417h-6.833V48.083h6.833
	V73.417z M30.75,49.083h-4.833v23.333h4.833V49.083z M44.25,16.833h-6.833v36.491h6.833V16.833z M44.25,73.417h-6.833V54.483h6.833
	V73.417z M43.25,55.483h-4.833v16.934h4.833V55.483z M56.583,16.833H49.75v29.5h6.833V16.833z M56.583,73.417H49.75V48.083h6.833
	V73.417z M55.583,49.083H50.75v23.333h4.833V49.083z M69.583,16.583H62.75v18.5h6.833V16.583z M69.583,73.167H62.75V36.833h6.833
	V73.167z M68.583,37.833H63.75v34.333h4.833V37.833z M82.583,16.583H75.75v10.75h6.833V16.583z M82.583,73.167H75.75V29.083h6.833
	V73.167z M81.583,30.083H76.75v42.083h4.833V30.083z"/>
</svg>
