<?xml version="1.0" encoding="utf-8"?>
<!-- Generator: Adobe Illustrator 19.0.0, SVG Export Plug-In . SVG Version: 6.00 Build 0)  -->
<svg version="1.1"
	 id="Layer_2" xmlns:dc="http://purl.org/dc/elements/1.1/" xmlns:cc="http://creativecommons.org/ns#" xmlns:rdf="http://www.w3.org/1999/02/22-rdf-syntax-ns#" xmlns:svg="http://www.w3.org/2000/svg" xmlns:sodipodi="http://sodipodi.sourceforge.net/DTD/sodipodi-0.dtd" xmlns:inkscape="http://www.inkscape.org/namespaces/inkscape" sodipodi:docname="close.svg" inkscape:version="0.91 r13725"
	 xmlns="http://www.w3.org/2000/svg" xmlns:xlink="http://www.w3.org/1999/xlink" x="0px" y="0px" viewBox="-255 347 100 100"
	 style="enable-background:new -255 347 100 100;" xml:space="preserve">
<style type="text/css">
	.st0{fill:#000000;}
</style>
<sodipodi:namedview  id="namedview5" inkscape:cy="50" inkscape:cx="50" inkscape:zoom="2.36" showgrid="false" guidetolerance="10" gridtolerance="10" pagecolor="#ffffff" borderopacity="1" bordercolor="#666666" objecttolerance="10" inkscape:current-layer="Layer_2" inkscape:window-maximized="0" inkscape:window-y="0" inkscape:window-x="0" inkscape:pageopacity="0" inkscape:window-height="480" inkscape:window-width="717" inkscape:pageshadow="2">
	</sodipodi:namedview>
<path id="path3" inkscape:connector-curvature="0" class="st0" d="M-193.4,397l25.3-25.3c0.6-0.6,0.6-1.6,0-2.2l-9.4-9.4
	c-0.3-0.3-0.7-0.5-1.1-0.5s-0.8,0.2-1.1,0.5l-25.4,25.4l-25.4-25.4c-0.6-0.6-1.6-0.6-2.2,0l-9.4,9.4c-0.6,0.6-0.6,1.6,0,2.2
	l25.3,25.3l-25.3,25.3c-0.6,0.6-0.6,1.6,0,2.2l9.4,9.4c0.3,0.3,0.7,0.5,1.1,0.5s0.8-0.2,1.1-0.5l25.4-25.3l25.4,25.4
	c0.3,0.3,0.7,0.5,1.1,0.5c0.4,0,0.8-0.2,1.1-0.5l9.4-9.4c0.6-0.6,0.6-1.6,0-2.2L-193.4,397z"/>
</svg>
