<?xml version="1.0" encoding="utf-8"?>
<!-- Generator: Adobe Illustrator 15.0.0, SVG Export Plug-In . SVG Version: 6.00 Build 0)  -->
<!DOCTYPE svg PUBLIC "-//W3C//DTD SVG 1.1//EN" "http://www.w3.org/Graphics/SVG/1.1/DTD/svg11.dtd">
<svg version="1.1" id="Layer_2" xmlns="http://www.w3.org/2000/svg" xmlns:xlink="http://www.w3.org/1999/xlink" x="0px" y="0px"
	 width="100px" height="100px" viewBox="0 0 100 100" enable-background="new 0 0 100 100" xml:space="preserve">
<style type="text/css">
	.st0{fill:#000000;}
</style>
<path class="st0" d="M89.547,4.432H11.005c-4.025,0-7.299,3.261-7.299,7.273v78.199c0,4.009,3.274,7.273,7.299,7.273h78.542
	c4.025,0,7.301-3.265,7.301-7.273V11.706C96.848,7.693,93.572,4.432,89.547,4.432z M84.599,12.709c1.726,0,3.126,1.398,3.126,3.121
	c0,1.719-1.4,3.117-3.126,3.117c-1.73,0-3.128-1.398-3.128-3.117C81.471,14.108,82.868,12.709,84.599,12.709z M73.389,12.709
	c1.73,0,3.129,1.398,3.129,3.121c0,1.719-1.398,3.117-3.129,3.117c-1.726,0-3.126-1.398-3.126-3.117
	C70.265,14.108,71.663,12.709,73.389,12.709z M88.506,88.865H12.045V26.686h76.461V88.865z M31.574,69.424l12.155-12.116
	L31.574,45.19c-1.808-1.801-1.808-4.723,0-6.523c1.808-1.801,4.736-1.801,6.544,0l12.158,12.115l12.157-12.115
	c1.809-1.801,4.737-1.801,6.546,0c1.808,1.8,1.808,4.722,0,6.523L56.823,57.308l12.155,12.116c1.808,1.801,1.808,4.724,0,6.521
	c-0.903,0.901-2.09,1.354-3.271,1.354c-1.188,0-2.369-0.452-3.271-1.354L50.278,63.831L38.119,75.945
	c-0.903,0.901-2.085,1.354-3.27,1.354s-2.369-0.452-3.272-1.354C29.766,74.147,29.766,71.225,31.574,69.424z"/>
</svg>
