<?xml version="1.0" encoding="UTF-8" standalone="no"?>
<!-- Generator: Adobe Illustrator 16.0.0, SVG Export Plug-In . SVG Version: 6.00 Build 0)  -->

<svg
   xmlns:dc="http://purl.org/dc/elements/1.1/"
   xmlns:cc="http://creativecommons.org/ns#"
   xmlns:rdf="http://www.w3.org/1999/02/22-rdf-syntax-ns#"
   xmlns:svg="http://www.w3.org/2000/svg"
   xmlns="http://www.w3.org/2000/svg"
   xmlns:sodipodi="http://sodipodi.sourceforge.net/DTD/sodipodi-0.dtd"
   xmlns:inkscape="http://www.inkscape.org/namespaces/inkscape"
   version="1.1"
   id="Layer_2"
   x="0px"
   y="0px"
   width="100px"
   height="100px"
   viewBox="0 0 100 100"
   enable-background="new 0 0 100 100"
   xml:space="preserve"
   inkscape:version="0.91 r13725"
   sodipodi:docname="close.svg"><metadata
     id="metadata9"><rdf:RDF><cc:Work
         rdf:about=""><dc:format>image/svg+xml</dc:format><dc:type
           rdf:resource="http://purl.org/dc/dcmitype/StillImage" /></cc:Work></rdf:RDF></metadata><defs
     id="defs7" /><sodipodi:namedview
     pagecolor="#ffffff"
     bordercolor="#666666"
     borderopacity="1"
     objecttolerance="10"
     gridtolerance="10"
     guidetolerance="10"
     inkscape:pageopacity="0"
     inkscape:pageshadow="2"
     inkscape:window-width="717"
     inkscape:window-height="480"
     id="namedview5"
     showgrid="false"
     inkscape:zoom="2.36"
     inkscape:cx="50"
     inkscape:cy="50"
     inkscape:window-x="0"
     inkscape:window-y="0"
     inkscape:window-maximized="0"
     inkscape:current-layer="Layer_2" /><path
     d="M 61.569894,50 86.919407,24.650487 c 0.608532,-0.608532 0.608532,-1.594961 0,-2.203493 l -9.365622,-9.36718 c -0.292189,-0.292189 -0.688786,-0.456594 -1.101746,-0.456594 -0.41296,0 -0.809558,0.164405 -1.101747,0.456594 L 50,38.430106 24.649708,13.079814 c -0.584378,-0.584378 -1.619115,-0.584378 -2.203493,0 l -9.365622,9.36718 c -0.608532,0.608532 -0.608532,1.594961 0,2.203493 L 38.430106,50 13.080593,75.349513 c -0.608532,0.608532 -0.608532,1.594961 0,2.203493 l 9.365622,9.366401 c 0.292189,0.292189 0.688786,0.456593 1.101746,0.456593 0.41296,0 0.809558,-0.164404 1.101747,-0.456593 L 50,61.569894 75.350292,86.920186 c 0.292189,0.292189 0.688787,0.456594 1.101747,0.456594 0.41296,0 0.809557,-0.164405 1.101746,-0.456594 l 9.365622,-9.366401 c 0.608532,-0.608532 0.608532,-1.594961 0,-2.203493 L 61.569894,50 Z"
     id="path3"
     inkscape:connector-curvature="0" /></svg>