<?xml version="1.0" encoding="utf-8"?>
<!-- Generator: Adobe Illustrator 16.0.0, SVG Export Plug-In . SVG Version: 6.00 Build 0)  -->
<!DOCTYPE svg PUBLIC "-//W3C//DTD SVG 1.1//EN" "http://www.w3.org/Graphics/SVG/1.1/DTD/svg11.dtd">
<svg version="1.1" id="Layer_5" xmlns="http://www.w3.org/2000/svg" xmlns:xlink="http://www.w3.org/1999/xlink" x="0px" y="0px"
	 width="100px" height="100px" viewBox="0 0 100 100" enable-background="new 0 0 100 100" xml:space="preserve">
<style type="text/css">
	.st0{fill:#000000;}
</style>
<path class="st0" d="M78.444,16.8H21.556c-2.915,0-5.287,2.371-5.287,5.286v56.828c0,2.915,2.372,5.286,5.287,5.286h56.889
	c2.915,0,5.287-2.372,5.287-5.286V22.086C83.731,19.171,81.359,16.8,78.444,16.8z M74.861,22.817c1.251,0,2.265,1.014,2.265,2.266
	s-1.014,2.266-2.265,2.266c-1.252,0-2.267-1.014-2.267-2.266S73.609,22.817,74.861,22.817z M66.742,22.817
	c1.252,0,2.267,1.014,2.267,2.266s-1.015,2.266-2.267,2.266c-1.251,0-2.265-1.014-2.265-2.266S65.491,22.817,66.742,22.817z
	 M77.689,78.158H22.311V32.973h55.379V78.158z M48.511,49.873l-18.237,8.359v-4.027l14.098-6.041v-0.076l-14.098-6.042v-4.026
	l18.237,8.358V49.873z M69.728,56.855H50.729v-1.899h18.999V56.855z"/>
</svg>
