<?xml version="1.0" encoding="utf-8"?>
<!-- Generator: Adobe Illustrator 16.0.0, SVG Export Plug-In . SVG Version: 6.00 Build 0)  -->
<!DOCTYPE svg PUBLIC "-//W3C//DTD SVG 1.1//EN" "http://www.w3.org/Graphics/SVG/1.1/DTD/svg11.dtd">
<svg version="1.1" id="Layer_2" xmlns="http://www.w3.org/2000/svg" xmlns:xlink="http://www.w3.org/1999/xlink" x="0px" y="0px"
	 width="50px" height="50px" viewBox="0 0 50 50" enable-background="new 0 0 50 50" xml:space="preserve">
<path d="M46.949,19.061c-0.475-0.591-1.191-0.936-1.949-0.936h-2.5c0-1.381-1.119-2.5-2.5-2.5h-2.5v-2.5c0-1.381-1.119-2.5-2.5-2.5
	h-1.25v-5c0-0.69-0.561-1.25-1.25-1.25h-25c-0.691,0-1.25,0.56-1.25,1.25v5H5c-1.381,0-2.5,1.119-2.5,2.5v30
	c0,1.381,1.119,2.5,2.5,2.5h5h25h5c1.172,0,2.187-0.814,2.439-1.958l5-22.5C47.605,20.427,47.424,19.652,46.949,19.061z
	 M6.25,43.125H5v-30h1.25V43.125z M33.968,30.969l-8.75,8.749c-0.488,0.488-1.279,0.488-1.768,0l-8.75-8.75
	c-0.357-0.356-0.465-0.895-0.271-1.362c0.193-0.467,0.648-0.771,1.154-0.771h3.125V18.126H15c-1.172,0-2.188,0.814-2.441,1.958
	c0,0-5.057,22.861-5.057,23.042H7.5v-37.5h25v10c-1.381,0-2.5,1.119-2.5,2.5h-0.042v10.71h3.125c0.506,0,0.961,0.305,1.156,0.771
	C34.434,30.074,34.325,30.611,33.968,30.969z M35,15.625h-1.25v-2.5H35V15.625z M11.167,9.917c0-0.69,0.56-1.25,1.25-1.25h14.916
	c0.69,0,1.25,0.56,1.25,1.25s-0.56,1.25-1.25,1.25H12.417C11.728,11.167,11.167,10.607,11.167,9.917z M27.333,16.25H12.417
	c-0.69,0-1.25-0.56-1.25-1.25s0.56-1.25,1.25-1.25h14.916c0.69,0,1.25,0.56,1.25,1.25S28.023,16.25,27.333,16.25z"/>
</svg>
