<?xml version="1.0"?>

<!DOCTYPE svg PUBLIC '-//W3C//DTD SVG 1.0//EN' 'http://www.w3.org/TR/2001/REC-SVG-20010904/DTD/svg10.dtd'>
<svg fill-opacity="1" xmlns:xlink="http://www.w3.org/1999/xlink" color-rendering="auto" color-interpolation="auto" text-rendering="auto" stroke="black" stroke-linecap="square" stroke-miterlimit="10" shape-rendering="auto" stroke-opacity="1" fill="black" stroke-dasharray="none" font-weight="normal" stroke-width="1" xmlns="http://www.w3.org/2000/svg" font-family="&apos;Dialog&apos;" font-style="normal" stroke-linejoin="miter" font-size="12" stroke-dashoffset="0" image-rendering="auto">
  <!--Unicode Character 'SCRIPT CAPITAL F' (U+2131)-->
  <defs id="genericDefs" />
      <style type="text/css">
	.st0{fill:#000000;}
</style>
<path class="st0" d="M254.8125 198.4219 Q238.9219 225.1406 215.4375 225.1406 Q203.0625 225.1406 178.4531 214.7344 Q161.4375 207.4219 153.2109 205.5234 Q144.9844 203.625 138.5156 203.625 Q120.2344 203.625 99.2109 215.2266 Q78.1875 226.8281 64.2656 244.0547 Q50.3438 261.2812 50.3438 275.3438 Q50.3438 284.3438 55.6172 290.4609 Q60.8906 296.5781 68.4844 296.5781 Q85.6406 296.5781 102.0234 275.3438 Q118.4062 254.1094 118.4062 224.5781 Q118.4062 221.4844 117.2812 218.8125 L120.0938 217.125 Q126.7031 227.6719 126.7031 247.6406 Q126.7031 271.2656 110.9531 287.0859 Q95.2031 302.9062 72.8438 302.9062 Q59.2031 302.9062 51.1875 295.7344 Q43.1719 288.5625 43.1719 277.3125 Q43.1719 258.6094 60.3281 238.7812 Q77.4844 218.9531 104.9062 206.2266 Q132.3281 193.5 158.625 193.5 Q174.0938 193.5 201.5156 199.2656 Q221.9062 203.625 230.3438 203.625 Q243.7031 203.625 251.1562 196.0312 L254.8125 198.4219 ZM177.4688 302.0625 Q185.0625 275.625 198.1406 275.625 Q204.4688 275.625 204.4688 282.5156 Q204.4688 296.4375 185.2031 305.2969 Q184.2188 324.7031 176.4844 336.9375 L160.1719 338.625 Q161.4375 335.5312 165.7969 328.5 Q173.3906 316.125 175.6406 308.3906 Q166.3594 309.7969 159.6094 309.7969 Q145.6875 341.7188 131.4141 356.5547 Q117.1406 371.3906 96.3984 379.4766 Q75.6562 387.5625 54.4219 387.5625 Q34.875 387.5625 22.5 377.9297 Q10.125 368.2969 10.125 353.3906 Q10.125 341.7188 17.1562 333.7031 Q24.1875 325.6875 34.0312 325.6875 Q40.6406 325.6875 44.9297 330.1172 Q49.2188 334.5469 49.2188 341.2969 Q49.2188 348.3281 45.4922 351.2109 Q41.7656 354.0938 27.8438 359.5781 Q23.4844 361.2656 22.8516 362.25 Q22.2188 363.2344 22.2188 364.7812 Q22.2188 371.9531 31.1484 377.1562 Q40.0781 382.3594 52.1719 382.3594 Q74.1094 382.3594 88.7344 366.5391 Q103.3594 350.7188 123.8906 311.625 Q101.1094 313.7344 76.6406 330.6094 Q74.25 328.9219 73.6875 326.5312 Q99.1406 306.4219 126.4219 305.2969 Q152.8594 248.2031 190.4062 226.5469 L192.9375 229.5 Q180.8438 246.2344 170.7188 278.1562 Q165.375 294.8906 161.8594 303.75 L163.8281 303.75 Q168.0469 303.75 177.4688 302.0625 Z" stroke="none" />
</svg>
