<?xml version="1.0" encoding="UTF-8" standalone="no"?>
<!-- Created with Inkscape (http://www.inkscape.org/) -->

<svg
   xmlns:dc="http://purl.org/dc/elements/1.1/"
   xmlns:cc="http://creativecommons.org/ns#"
   xmlns:rdf="http://www.w3.org/1999/02/22-rdf-syntax-ns#"
   xmlns:svg="http://www.w3.org/2000/svg"
   xmlns="http://www.w3.org/2000/svg"
   xmlns:sodipodi="http://sodipodi.sourceforge.net/DTD/sodipodi-0.dtd"
   xmlns:inkscape="http://www.inkscape.org/namespaces/inkscape"
   width="10.461617mm"
   height="8.0621271mm"
   viewBox="0 0 37.068723 28.566592"
   id="svg4303"
   version="1.1"
   inkscape:version="0.91 r13725"
   sodipodi:docname="gaussian_bare.svg">
  <defs
     id="defs4305" />
  <sodipodi:namedview
     id="base"
     pagecolor="#ffffff"
     bordercolor="#666666"
     borderopacity="1.0"
     inkscape:pageopacity="0.0"
     inkscape:pageshadow="2"
     inkscape:zoom="0.35"
     inkscape:cx="742.10574"
     inkscape:cy="-31.430991"
     inkscape:document-units="px"
     inkscape:current-layer="layer1"
     showgrid="false"
     fit-margin-top="0"
     fit-margin-left="0"
     fit-margin-right="0"
     fit-margin-bottom="0"
     inkscape:window-width="1920"
     inkscape:window-height="1060"
     inkscape:window-x="-2"
     inkscape:window-y="-3"
     inkscape:window-maximized="1" />
  <metadata
     id="metadata4308">
    <rdf:RDF>
      <cc:Work
         rdf:about="">
        <dc:format>image/svg+xml</dc:format>
        <dc:type
           rdf:resource="http://purl.org/dc/dcmitype/StillImage" />
        <dc:title></dc:title>
      </cc:Work>
    </rdf:RDF>
  </metadata>
  <g
     inkscape:label="Layer 1"
     inkscape:groupmode="layer"
     id="layer1"
     transform="translate(824.2486,-472.36462)">
    <g
       style="clip-rule:evenodd;fill-rule:evenodd;stroke:#000000;stroke-width:1.875;stroke-miterlimit:4;stroke-dasharray:none;stroke-opacity:1;image-rendering:optimizeQuality;shape-rendering:geometricPrecision;text-rendering:geometricPrecision"
       id="g4274"
       transform="translate(-1157.9158,234.59111)">
      <g
         id="Layer_x0020_1"
         style="stroke:#000000;stroke-width:1.875;stroke-miterlimit:4;stroke-dasharray:none;stroke-opacity:1">
        <metadata
           id="CorelCorpID_0Corel-Layer" />
        <path
           style="fill:none;fill-rule:nonzero;stroke:#000000;stroke-width:1.875;stroke-linecap:round;stroke-linejoin:round;stroke-miterlimit:4;stroke-dasharray:none;stroke-opacity:1"
           inkscape:connector-curvature="0"
           id="_39579056"
           class="fil1 str2"
           d="m 334.61805,265.38165 0.0377,-8e-4 0.0369,-0.001 0.0397,-0.002 0.0373,-8e-4 0.0403,-0.002 0.0382,-0.002 0.0369,-0.002 0.0392,-0.002 0.038,-8.7e-4 0.0366,-0.002 0.0388,-0.002 0.0373,-0.002 0.04,-0.002 0.0377,-0.001 0.0373,-10e-4 0.0392,-0.002 0.0376,-0.002 0.0362,-0.002 0.0388,-0.002 0.0366,-0.002 0.04,-0.002 0.0374,-10e-4 0.0369,-0.002 0.0392,-0.002 0.0373,-0.002 0.04,-0.003 0.0385,-0.002 0.0373,-0.002 0.0392,-0.002 0.0373,-0.002 0.0369,-0.002 0.0385,-0.003 0.0373,-0.002 0.04,-0.003 0.0376,-0.003 0.0366,-0.003 0.0399,-0.003 0.0373,-0.002 0.0361,-0.003 0.0384,-0.004 0.037,-0.003 0.0395,-0.003 0.0381,-0.004 0.0362,-0.003 0.0392,-0.004 0.0373,-0.003 0.04,-0.004 0.0385,-0.004 0.0365,-0.004 0.0392,-0.003 0.0376,-0.005 0.0365,-0.004 0.0385,-0.005 0.0373,-0.003 0.0392,-0.005 0.0389,-0.004 0.0361,-0.005 0.0392,-0.005 0.0377,-0.005 0.0395,-0.005 0.0388,-0.005 0.0362,-0.005 0.04,-0.005 0.0377,-0.006 0.0365,-0.005 0.0384,-0.005 0.0377,-0.006 0.0397,-0.006 0.0384,-0.006 0.0366,-0.007 0.0392,-0.006 0.0377,-0.007 0.0362,-0.006 0.0388,-0.007 0.0369,-0.007 0.0392,-0.007 0.0382,-0.007 0.0368,-0.008 0.0389,-0.007 0.0377,-0.008 0.0397,-0.008 0.038,-0.008 0.0373,-0.008 0.0392,-0.008 0.0377,-0.009 0.0361,-0.008 0.0389,-0.009 0.0376,-0.009 0.0392,-0.01 0.0384,-0.01 0.0366,-0.009 0.0392,-0.0104 0.0377,-0.01 0.0395,-0.0116 0.0385,-0.01 0.0377,-0.0103 0.0388,-0.0124 0.0377,-0.0104 0.0368,-0.0111 0.0389,-0.0116 0.0376,-0.0118 0.0389,-0.0128 0.0388,-0.0118 0.0366,-0.0124 0.0395,-0.0134 0.0377,-0.0128 0.0362,-0.0126 0.0388,-0.0135 0.037,-0.0138 0.0395,-0.0142 0.0381,-0.015 0.0365,-0.0134 0.0389,-0.015 0.0376,-0.0149 0.0397,-0.0158 0.0388,-0.0166 0.0373,-0.0149 0.0389,-0.0174 0.0376,-0.0166 0.037,-0.0166 0.038,-0.0172 0.0377,-0.0173 0.0396,-0.0181 0.0384,-0.0177 0.037,-0.0189 0.0388,-0.0188 0.0377,-0.0196 0.0365,-0.018 0.0385,-0.0204 0.0369,-0.0193 0.0392,-0.0211 0.0381,-0.0212 0.0369,-0.0207 0.038,-0.0219 0.0377,-0.0219 0.04,-0.0231 0.038,-0.0234 0.037,-0.0224 0.0395,-0.0242 0.0377,-0.0231 0.0366,-0.0234 0.0384,-0.0254 0.037,-0.0249 0.0403,-0.0262 0.0377,-0.0262 0.0368,-0.0257 0.0385,-0.0277 0.0377,-0.0262 0.0403,-0.0305 0.0381,-0.0284 0.0373,-0.027 0.0392,-0.0307 0.0376,-0.0292 0.0369,-0.0293 0.0385,-0.0311 0.0373,-0.0299 0.04,-0.0331 0.0381,-0.0323 0.0369,-0.0315 0.0388,-0.0339 0.0381,-0.0335 0.0365,-0.0323 0.0381,-0.0345 0.0369,-0.0347 0.04,-0.037 0.0377,-0.036 0.0365,-0.035 0.0392,-0.0377 0.0373,-0.0377 0.0401,-0.0403 0.0384,-0.0385 0.0366,-0.0381 0.04,-0.0415 0.0377,-0.0405 0.0361,-0.0392 0.0392,-0.0426 0.0369,-0.0416 0.04,-0.0443 0.0376,-0.0441 0.0366,-0.0423 0.0392,-0.0458 0.0373,-0.0451 0.0369,-0.0435 0.0385,-0.0473 0.0369,-0.0449 0.0392,-0.0496 0.0377,-0.0488 0.0369,-0.0465 0.0392,-0.0512 0.0373,-0.0489 0.0392,-0.0534 0.0388,-0.0523 0.0362,-0.0504 0.0399,-0.0549 0.0374,-0.0536 0.0365,-0.0514 0.0388,-0.0558 0.0366,-0.0539 0.0397,-0.0589 0.0388,-0.0569 0.0362,-0.0557 0.0391,-0.0593 0.0377,-0.0584 0.0396,-0.0635 0.0389,-0.0607 0.0361,-0.0591 0.0397,-0.0639 0.0384,-0.0632 0.0358,-0.0599 0.0392,-0.0654 0.0374,-0.0637 0.0392,-0.0685 0.0385,-0.0662 0.0365,-0.0646 0.0392,-0.0695 0.0377,-0.0685 0.0365,-0.0654 0.0385,-0.0715 0.0373,-0.068 0.0392,-0.0747 0.0385,-0.072 0.0361,-0.0707 0.0389,-0.075 0.0376,-0.073 0.0397,-0.0788 0.0384,-0.0765 0.0369,-0.075 0.0388,-0.0796 0.0385,-0.0772 0.0358,-0.0762 0.0392,-0.0811 0.0369,-0.0788 0.0396,-0.0846 0.0384,-0.082 0.037,-0.0804 0.0388,-0.085 0.0377,-0.0842 0.0395,-0.0892 0.0385,-0.0874 0.0373,-0.0842 0.0392,-0.09 0.0384,-0.0884 0.0358,-0.085 0.0392,-0.0915 0.0377,-0.0888 0.0388,-0.0954 0.0389,-0.0923 0.0366,-0.0896 0.0395,-0.0965 0.0377,-0.0935 0.0358,-0.0907 0.0392,-0.0969 0.037,-0.0939 0.0391,-0.10145 0.0381,-0.0977 0.0368,-0.0954 0.039,-0.10116 0.0376,-0.0984 0.0397,-0.10618 0.0384,-0.10196 0.037,-0.0999 0.0392,-0.10654 0.038,-0.10297 0.0362,-0.10007 0.0388,-0.10654 0.0373,-0.10378 0.04,-0.11119 0.0377,-0.10726 0.0369,-0.10341 0.0392,-0.11119 0.0377,-0.10836 0.0365,-0.10435 0.0381,-0.11185 0.0369,-0.10799 0.0397,-0.11576 0.0381,-0.11199 0.0365,-0.10799 0.0385,-0.11577 0.0377,-0.11271 0.0399,-0.11962 0.0384,-0.11606 0.0366,-0.11228 0.0392,-0.12005 0.0377,-0.1165 0.0369,-0.11199 0.0381,-0.1191 0.0373,-0.11657 0.0395,-0.12304 0.0382,-0.12034 0.0369,-0.11577 0.0389,-0.12383 0.0376,-0.11918 0.04,-0.12733 0.038,-0.12303 0.0374,-0.11925 0.0388,-0.12725 0.038,-0.12231 0.037,-0.11846 0.038,-0.12688 0.0377,-0.12231 0.04,-0.13037 0.038,-0.12536 0.037,-0.12144 0.0388,-0.12936 0.0377,-0.12536 0.036,-0.12034 0.0385,-0.12841 0.0377,-0.12384 0.0395,-0.13233 0.0381,-0.12761 0.0366,-0.12311 0.0388,-0.1311 0.0373,-0.1258 0.04,-0.13451 0.0381,-0.13009 0.0373,-0.12536 0.0392,-0.13299 0.0377,-0.12848 0.036,-0.12383 0.0393,-0.13147 0.0366,-0.12616 0.0403,-0.13495 0.0377,-0.13001 0.0368,-0.12536 0.0392,-0.13314 0.0373,-0.12761 0.0401,-0.13691 0.0389,-0.13147 0.0365,-0.12536 0.0395,-0.13466 0.0381,-0.12885 0.0365,-0.12412 0.039,-0.1319 0.0373,-0.12689 0.04,-0.13466 0.0381,-0.12994 0.0369,-0.12456 0.0392,-0.13233 0.0376,-0.12689 0.0362,-0.12231 0.0388,-0.12993 0.0373,-0.12427 0.0392,-0.13227 0.0382,-0.12652 0.0365,-0.12231 0.0392,-0.12964 0.0374,-0.12384 0.0403,-0.1319 0.0381,-0.12565 0.0369,-0.12158 0.0392,-0.12805 0.0381,-0.1231 0.0365,-0.11839 0.0388,-0.12499 0.0374,-0.11991 0.0391,-0.12689 0.0385,-0.12158 0.0365,-0.11649 0.0392,-0.12355 0.0382,-0.11838 0.0361,-0.11271 0.0384,-0.11999 0.037,-0.11489 0.0395,-0.12078 0.0385,-0.11577 0.036,-0.11111 0.0389,-0.1173 0.0376,-0.11191 0.0397,-0.11882 0.0384,-0.11272 0.0366,-0.1085 0.0396,-0.11409 0.0377,-0.1085 0.036,-0.10465 0.0385,-0.11032 0.0377,-0.10421 0.0395,-0.11075 0.0381,-0.10574 0.0362,-0.10036 0.0392,-0.10617 0.0384,-0.10116 0.0396,-0.1061 0.0384,-0.10189 0.0366,-0.0962 0.0395,-0.10196 0.0382,-0.0964 0.0366,-0.0924 0.0384,-0.0969 0.0377,-0.0916 0.0395,-0.0969 0.0385,-0.0919 0.0365,-0.0876 0.0392,-0.0916 0.0377,-0.0874 0.0366,-0.0826 0.0385,-0.0861 0.0373,-0.0823 0.0392,-0.0863 0.0381,-0.0818 0.0362,-0.0765 0.0392,-0.0811 0.0376,-0.0765 0.04,-0.0797 0.0389,-0.0761 0.0361,-0.0712 0.0395,-0.0746 0.0382,-0.0704 0.0361,-0.0662 0.0389,-0.0688 0.0373,-0.065 0.0392,-0.068 0.0388,-0.0636 0.0365,-0.06 0.0385,-0.0624 0.0377,-0.0584 0.0366,-0.0549 0.0384,-0.0561 0.0376,-0.0536 0.0389,-0.0549 0.0376,-0.0507 0.0369,-0.0482 0.0388,-0.0496 0.0377,-0.0458 0.0388,-0.0473 0.0389,-0.0438 0.0373,-0.0408 0.0388,-0.0415 0.038,-0.0384 0.0362,-0.0355 0.0385,-0.036 0.0377,-0.0331 0.0388,-0.0331 0.0384,-0.0308 0.0369,-0.0277 0.0385,-0.0276 0.0377,-0.0254 0.04,-0.0251 0.0384,-0.022 0.0374,-0.0199 0.0391,-0.0193 0.0377,-0.0169 0.037,-0.0142 0.0384,-0.0143 0.0373,-0.0119 0.0396,-0.0108 0.0385,-0.008 0.0365,-0.007 0.0192,-0.003 0.0201,-0.003 0.0196,-0.002 0.0181,-0.002 0.009,-4.4e-4 0.01,0 0.01,-8e-4 0.005,0 0.005,-7.3e-4 0.0374,0 0.01,7.3e-4 0.008,8e-4 0.0203,4.4e-4 0.0196,0.002 0.0174,0.002 0.0384,0.005 0.0366,0.007 0.0395,0.009 0.0377,0.01 0.0365,0.0119 0.0384,0.0135 0.037,0.015 0.0395,0.0181 0.0378,0.0181 0.0368,0.0199 0.0393,0.0227 0.0373,0.0235 0.04,0.0269 0.0385,0.027 0.0369,0.0277 0.0392,0.0319 0.0376,0.032 0.0369,0.0323 0.0381,0.0362 0.0377,0.0369 0.0395,0.0396 0.0385,0.0411 0.0365,0.0401 0.0393,0.0454 0.0373,0.0442 0.0362,0.045 0.0392,0.0481 0.0369,0.0493 0.0397,0.0526 0.0376,0.0531 0.0362,0.0523 0.0392,0.0569 0.0373,0.0572 0.04,0.0616 0.0381,0.0607 0.0369,0.0608 0.0392,0.065 0.0377,0.0645 0.0366,0.0634 0.0388,0.0693 0.0369,0.0677 0.0396,0.0735 0.0384,0.0723 0.0366,0.0709 0.0392,0.0772 0.0373,0.075 0.0788,0.16155 0.037,0.0781 0.0388,0.0846 0.038,0.0827 0.0365,0.0804 0.0389,0.0873 0.0373,0.0854 0.0401,0.0916 0.075,0.17689 0.0393,0.0937 0.0373,0.092 0.036,0.0895 0.0393,0.0966 0.0365,0.0934 0.0397,0.10087 0.0384,0.0984 0.0362,0.0957 0.0392,0.10225 0.0377,0.1 0.0391,0.1069 0.0385,0.10465 0.0369,0.10116 0.0396,0.10922 0.0377,0.10502 0.0365,0.10297 0.0385,0.10966 0.0377,0.10727 0.0391,0.1138 0.0385,0.11119 0.0365,0.10763 0.0392,0.1154 0.0377,0.11228 0.0358,0.1077 0.0388,0.11613 0.037,0.11257 0.0395,0.12049 0.0382,0.11606 0.0361,0.11271 0.0388,0.12115 0.0377,0.11649 0.0397,0.12464 0.038,0.12078 0.0373,0.11729 0.0388,0.12456 0.0382,0.12071 0.0361,0.11649 0.0385,0.12463 0.0377,0.12079 0.0392,0.12884 0.0381,0.12384 0.0368,0.12034 0.0762,0.25225 0.04,0.13153 0.0385,0.12769 0.0373,0.1226 0.0388,0.13117 0.0381,0.12689 0.0366,0.1215 0.0384,0.13038 0.0377,0.12536 0.0392,0.13422 0.0388,0.12885 0.0365,0.12427 0.0389,0.13219 0.038,0.12812 0.0362,0.12304 0.0384,0.13074 0.0373,0.12652 0.0392,0.13386 0.0381,0.1295 0.0366,0.12427 0.0388,0.13299 0.0373,0.12776 0.04,0.13532 0.0385,0.13081 0.0369,0.12565 0.0388,0.13386 0.0381,0.12885 0.0365,0.12339 0.0385,0.13161 0.0373,0.12689 0.0397,0.13386 0.0376,0.12914 0.0374,0.12463 0.0388,0.13234 0.0376,0.12688 0.04,0.13416 0.0384,0.12994 0.0373,0.12426 0.0392,0.1319 0.0377,0.12689 0.0366,0.12231 0.0388,0.12965 0.0369,0.12383 0.0403,0.13146 0.0381,0.12689 0.0368,0.12122 0.039,0.1295 0.038,0.1231 0.0362,0.11882 0.0384,0.1258 0.037,0.12078 0.0403,0.12841 0.0377,0.1226 0.0365,0.11773 0.0392,0.12536 0.0373,0.11926 0.0397,0.12688 0.0384,0.12187 0.037,0.11657 0.0395,0.12383 0.0374,0.11759 0.0368,0.11351 0.0382,0.12034 0.0376,0.11577 0.0397,0.12151 0.0384,0.11729 0.0366,0.11112 0.0392,0.11846 0.0374,0.11351 0.0361,0.10923 0.0389,0.11453 0.0368,0.10959 0.0396,0.11649 0.0377,0.11119 0.0369,0.10683 0.0388,0.11271 0.0373,0.10806 0.0397,0.11424 0.0384,0.1088 0.0374,0.10428 0.0388,0.11112 0.038,0.10537 0.0362,0.10072 0.0385,0.10727 0.0373,0.10196 0.0395,0.1077 0.0385,0.10268 0.0362,0.0992 0.0391,0.10378 0.0374,0.10007 0.04,0.10421 0.0388,0.10145 0.0365,0.0954 0.0395,0.10116 0.0373,0.0969 0.037,0.0927 0.0392,0.0977 0.0365,0.0931 0.0405,0.098 0.038,0.0942 0.037,0.09 0.0391,0.0946 0.0374,0.0903 0.0365,0.0854 0.0388,0.0919 0.0366,0.0861 0.0397,0.0916 0.0384,0.0881 0.0362,0.0834 0.0392,0.0877 0.0376,0.0842 0.0392,0.0881 0.0385,0.0839 0.0369,0.0812 0.0392,0.0849 0.0382,0.0803 0.0358,0.0774 0.0392,0.0811 0.0373,0.0773 0.0395,0.082 0.0382,0.0772 0.0366,0.0746 0.0391,0.0781 0.0377,0.0743 0.04,0.0781 0.0388,0.0746 0.0362,0.0711 0.0395,0.0743 0.0385,0.0715 0.0362,0.0685 0.0392,0.0711 0.0373,0.0685 0.0395,0.0715 0.0385,0.068 0.0365,0.0647 0.0396,0.0685 0.0377,0.0646 0.0358,0.0623 0.0392,0.0646 0.0373,0.0623 0.0392,0.0654 0.038,0.0615 0.0362,0.0593 0.0392,0.0619 0.0377,0.0592 0.0396,0.0615 0.0388,0.0593 0.0369,0.0557 0.0392,0.0591 0.0381,0.0558 0.0362,0.0531 0.0388,0.0565 0.0377,0.0535 0.0391,0.0554 0.0382,0.0534 0.0373,0.0512 0.0388,0.0523 0.0377,0.0504 0.0358,0.048 0.0392,0.0504 0.037,0.0481 0.0391,0.0496 0.0385,0.0481 0.0362,0.045 0.0388,0.0481 0.0377,0.045 0.0395,0.0473 0.0381,0.0446 0.0373,0.0427 0.0392,0.0449 0.0377,0.0427 0.0365,0.0408 0.0385,0.0419 0.0373,0.0407 0.0395,0.0412 0.0382,0.0408 0.0368,0.038 0.0385,0.0392 0.0377,0.0381 0.04,0.04 0.0385,0.0377 0.0373,0.035 0.0392,0.0376 0.0376,0.0355 0.037,0.0339 0.0384,0.0353 0.0373,0.0331 0.0396,0.035 0.0389,0.0331 0.0365,0.0315 0.0388,0.0323 0.038,0.0316 0.0366,0.0292 0.0381,0.0318 0.0373,0.0293 0.0393,0.0307 0.038,0.0292 0.037,0.027 0.0385,0.0292 0.0376,0.0273 0.0404,0.0292 0.0381,0.027 0.0373,0.0257 0.077,0.0515 0.036,0.0242 0.039,0.0254 0.0373,0.0242 0.04,0.0246 0.0376,0.0234 0.0369,0.0224 0.0392,0.0234 0.0377,0.0227 0.0361,0.0207 0.038,0.022 0.0374,0.0207 0.0395,0.0212 0.0381,0.0211 0.0362,0.0189 0.0392,0.0207 0.0373,0.0196 m -4.8e-4,0 0.0404,0.0196 0.0376,0.0188 0.0374,0.0181 0.0392,0.0185 0.0376,0.0181 0.0362,0.0166 0.0388,0.0173 0.0373,0.0165 0.0397,0.0173 0.0376,0.0166 0.0366,0.0157 0.0392,0.0158 0.0374,0.0149 0.0401,0.0158 0.0384,0.015 0.0373,0.0142 0.0389,0.015 0.0381,0.0138 0.0365,0.0134 0.0388,0.0135 0.0374,0.0134 0.0395,0.0135 0.0381,0.0126 0.0369,0.0124 0.0396,0.0127 0.0373,0.0119 0.0362,0.0111 0.0385,0.0116 0.037,0.0111 0.0395,0.0111 0.0385,0.0116 0.036,0.0105 0.0392,0.0103 0.0373,0.0108 0.04,0.0103 0.038,0.01 0.037,0.009 0.0397,0.01 0.0376,0.009 0.0365,0.009 0.0384,0.009 0.0373,0.009 0.0397,0.009 0.0381,0.008 0.0365,0.007 0.0392,0.009 0.0377,0.008 0.04,0.009 0.0388,0.007 0.036,0.007 0.0397,0.008 0.0385,0.007 0.036,0.007 0.0392,0.007 0.0373,0.006 0.0397,0.007 0.0381,0.006 0.0369,0.007 0.0392,0.006 0.0382,0.006 0.0358,0.005 0.0388,0.006 0.0369,0.005 0.0401,0.006 0.038,0.005 0.0361,0.005 0.0393,0.005 0.0377,0.005 0.0392,0.005 0.0388,0.005 0.0365,0.004 0.0397,0.005 0.0376,0.005 0.0365,0.004 0.0385,0.005 0.0377,0.004 0.0395,0.005 0.0385,0.003 0.0362,0.004 0.0392,0.004 0.0376,0.004 0.0365,0.003 0.0385,0.003 0.0373,0.003 0.0392,0.005 0.0381,0.003 0.0362,0.003 0.0388,0.003 0.0377,0.003 0.04,0.003 0.0381,0.003 0.0373,0.003 0.0385,0.003 0.0385,0.002 0.0362,0.003 0.0388,0.002 0.0369,0.002 0.0392,0.003 0.0384,0.002 0.037,0.002 0.0388,0.002 0.0377,0.002 0.0395,0.002 0.0388,0.002 0.0366,0.002 0.0392,10e-4 0.0384,0.002 0.0365,0.002 0.0385,0.002 0.0377,0.002 0.0392,0.002 0.0385,0.002 0.0368,0.001 0.0392,10e-4 0.0377,0.002 0.036,0.002 0.0382,0.002 0.0376,0.002 0.0397,8.7e-4 0.038,0.002 0.0365,0.002 0.0388,0.002 0.0374,0.002 0.04,8e-4 0.0384,0.002 0.0369,7.1e-4 0.0388,0.001 0.0381,0.002 0.0366,0.002 0.0384,7.1e-4 0.0374,8e-4 0.0399,7.1e-4 0.0381,0.002 0.0366,8e-4 0.0388,7.1e-4 0.0377,8.7e-4 0.0408,0.002 0.038,8e-4 0.0373,7.1e-4 0.0389,8e-4 0.038,7.1e-4 0.0365,8e-4 0.0388,4.8e-4 0.0377,6.3e-4 0.0781,0.002 0.0365,7.9e-4 0.0392,7.2e-4 0.0377,8e-4 0.0361,0" />
      </g>
    </g>
  </g>
</svg>
