<?xml version="1.0" encoding="utf-8"?>
<!-- Generator: Adobe Illustrator 16.0.0, SVG Export Plug-In . SVG Version: 6.00 Build 0)  -->
<!DOCTYPE svg PUBLIC "-//W3C//DTD SVG 1.1//EN" "http://www.w3.org/Graphics/SVG/1.1/DTD/svg11.dtd">
<svg version="1.1" id="Layer_5" xmlns="http://www.w3.org/2000/svg" xmlns:xlink="http://www.w3.org/1999/xlink" x="0px" y="0px"
	 width="100px" height="100px" viewBox="0 0 100 100" enable-background="new 0 0 100 100" xml:space="preserve">
<style type="text/css">
	.st0{fill:#000000;}
</style>
<path class="st0" d="M65.301,27.729c-5.922,0-11.308,2.328-15.301,6.11c-3.993-3.783-9.379-6.11-15.301-6.11
	c-12.28,0-22.271,9.991-22.271,22.271s9.991,22.271,22.271,22.271c5.922,0,11.308-2.328,15.301-6.11
	c3.993,3.783,9.379,6.11,15.301,6.11c12.28,0,22.271-9.991,22.271-22.271S77.581,27.729,65.301,27.729z M34.699,70.271
	c-11.178,0-20.271-9.094-20.271-20.271s9.094-20.271,20.271-20.271c5.383,0,10.27,2.123,13.902,5.558
	c-3.464,3.927-5.572,9.078-5.572,14.714s2.108,10.787,5.572,14.714C44.969,68.148,40.082,70.271,34.699,70.271z M45.029,50
	c0-5.069,1.884-9.699,4.971-13.257c3.087,3.558,4.971,8.188,4.971,13.257S53.087,59.699,50,63.257
	C46.913,59.699,45.029,55.069,45.029,50z M65.301,70.271c-5.383,0-10.27-2.123-13.902-5.558c3.464-3.927,5.572-9.078,5.572-14.714
	s-2.108-10.787-5.572-14.714c3.633-3.435,8.52-5.558,13.902-5.558c11.178,0,20.271,9.094,20.271,20.271S76.479,70.271,65.301,70.271
	z M51.327,40.625h-2.958v-1h2.958V40.625z M48.64,59.375h2.958v1H48.64V59.375z M53.369,44.167h-6.5v-1h6.5V44.167z M53.994,47.375
	h-8.269v-1h8.269V47.375z M54.286,49.667v1h-8.572v-1H54.286z M46.141,52.934h7.715v1h-7.715V52.934z M46.869,56.125h5.875v1h-5.875
	V56.125z"/>
</svg>
