<?xml version="1.0" encoding="utf-8"?>
<!-- Generator: Adobe Illustrator 16.0.4, SVG Export Plug-In . SVG Version: 6.00 Build 0)  -->
<!DOCTYPE svg PUBLIC "-//W3C//DTD SVG 1.1//EN" "http://www.w3.org/Graphics/SVG/1.1/DTD/svg11.dtd">
<svg version="1.1" id="Layer_1" xmlns="http://www.w3.org/2000/svg" xmlns:xlink="http://www.w3.org/1999/xlink" x="0px" y="0px"
	 width="72.818px" height="72.814px" viewBox="0 0 72.818 72.814" enable-background="new 0 0 72.818 72.814" xml:space="preserve">
<g>
	<path fill="#1B1819" d="M49.829,45.562l-8.158-7.048c-0.525-0.525-1.25-0.729-1.932-0.619c2.846-3.749,2.568-9.129-0.851-12.548
		c-3.733-3.732-9.807-3.732-13.539,0c-3.731,3.732-3.731,9.807,0,13.539c3.42,3.42,8.8,3.697,12.548,0.852
		c-0.109,0.682,0.094,1.404,0.619,1.932l7.048,8.16c0.87,0.871,2.839,0.313,3.709-0.556C50.145,48.401,50.7,46.433,49.829,45.562z
		 M36.663,36.66c-2.506,2.505-6.582,2.505-9.088,0c-2.507-2.505-2.506-6.582,0-9.087c2.504-2.505,6.582-2.506,9.086,0
		C39.167,30.078,39.167,34.156,36.663,36.66z"/>
	<path fill="#1B1819" d="M28.233,31.888c-0.005-0.435-0.36-0.782-0.796-0.777c-0.437,0.005-0.781,0.36-0.777,0.795
		c0.02,1.655,0.672,3.212,1.844,4.384c0.309,0.307,0.808,0.307,1.113,0c0.309-0.307,0.309-0.805,0-1.113
		C28.738,34.297,28.247,33.129,28.233,31.888z"/>
</g>
</svg>
