<?xml version="1.0" encoding="utf-8"?>
<!-- Generator: Adobe Illustrator 15.0.0, SVG Export Plug-In . SVG Version: 6.00 Build 0)  -->
<!DOCTYPE svg PUBLIC "-//W3C//DTD SVG 1.1//EN" "http://www.w3.org/Graphics/SVG/1.1/DTD/svg11.dtd">
<svg version="1.1" id="Capa_1" xmlns="http://www.w3.org/2000/svg" xmlns:xlink="http://www.w3.org/1999/xlink" x="0px" y="0px"
	 width="114.498px" height="114.497px" viewBox="0 0 114.498 114.497" enable-background="new 0 0 114.498 114.497"
	 xml:space="preserve">
<style type="text/css">
	.st0{fill:#000000;}
</style>
<line fill="none" stroke="#000000" stroke-width="5" stroke-miterlimit="10" x1="14.749" y1="30.499" x2="98.999" y2="30.499"/>
<polygon class="st0" points="70.192,3.749 56.874,26.818 43.555,3.749 "/>
<g>
	<path class="st0" d="M7.325,50.431c0-3.199-0.119-5.707-0.237-8.216h4.562l0.237,4.955h0.178c1.6-2.885,4.266-5.582,9.065-5.582
		c3.852,0,6.814,2.508,8.058,6.083h0.119c0.889-1.756,2.074-3.01,3.259-3.951c1.718-1.38,3.555-2.132,6.28-2.132
		c3.851,0,9.48,2.634,9.48,13.17v17.811H43.23V55.448c0-5.896-2.074-9.345-6.221-9.345c-3.021,0-5.273,2.321-6.221,4.955
		c-0.237,0.815-0.415,1.756-0.415,2.759v18.751h-5.096V54.382c0-4.829-2.014-8.278-5.984-8.278c-3.2,0-5.629,2.76-6.458,5.519
		c-0.296,0.752-0.415,1.756-0.415,2.697v18.25H7.325V50.431z"/>
	<path class="st0" d="M76.878,65.293c0,2.635,0.118,5.205,0.415,7.274h-4.681l-0.416-3.825h-0.176c-1.601,2.383-4.682,4.516-8.771,4.516
		c-5.806,0-8.769-4.327-8.769-8.717c0-7.337,6.163-11.352,17.243-11.29v-0.627c0-2.446-0.652-7.024-6.519-6.961
		c-2.726,0-5.511,0.815-7.525,2.258l-1.185-3.7c2.369-1.568,5.865-2.634,9.479-2.634c8.771,0,10.902,6.334,10.902,12.354v11.352
		H76.878z M71.842,57.079c-5.688-0.125-12.146,0.94-12.146,6.835c0,3.638,2.252,5.269,4.857,5.269c3.793,0,6.223-2.509,7.051-5.08
		c0.179-0.627,0.237-1.254,0.237-1.756V57.079z"/>
	<path class="st0" d="M87.717,42.215l4.089,6.522c1.125,1.693,2.014,3.198,2.963,4.892h0.117c0.948-1.756,1.896-3.324,2.903-4.955l3.97-6.459
		h5.688L97.67,56.891l10.015,15.678h-5.867l-4.266-6.836c-1.126-1.756-2.072-3.449-3.08-5.268h-0.119
		c-0.947,1.818-1.896,3.449-3.021,5.268l-4.147,6.836h-5.748l10.191-15.49L81.91,42.215H87.717z"/>
</g>
</svg>
