<?xml version="1.0" encoding="utf-8"?>
<!-- Generator: Adobe Illustrator 15.0.0, SVG Export Plug-In . SVG Version: 6.00 Build 0)  -->
<!DOCTYPE svg PUBLIC "-//W3C//DTD SVG 1.1//EN" "http://www.w3.org/Graphics/SVG/1.1/DTD/svg11.dtd">
<svg version="1.1" id="Capa_1" xmlns="http://www.w3.org/2000/svg" xmlns:xlink="http://www.w3.org/1999/xlink" x="0px" y="0px"
	 width="114.498px" height="114.497px" viewBox="0 0 114.498 114.497" enable-background="new 0 0 114.498 114.497"
	 xml:space="preserve">
<style type="text/css">
	.st0{fill:#000000;}
</style>
<line fill="none" stroke="#000000" stroke-width="5" stroke-miterlimit="10" x1="16.7" y1="82.747" x2="100.95" y2="82.747"/>
<polygon class="st0" points="72.145,109.497 58.825,86.426 45.506,109.497 "/>
<g>
	<path class="st0" d="M12.749,53.073c0-3.256-0.128-5.81-0.255-8.363h4.916l0.256,5.043h0.191c1.724-2.937,4.597-5.682,9.768-5.682
		c4.15,0,7.342,2.554,8.683,6.192h0.128c0.958-1.788,2.234-3.064,3.511-4.022c1.852-1.405,3.831-2.17,6.768-2.17
		c4.15,0,10.215,2.681,10.215,13.407V75.61h-5.491V58.181c0-6.001-2.234-9.513-6.703-9.513c-3.256,0-5.682,2.362-6.704,5.043
		c-0.255,0.83-0.447,1.788-0.447,2.809V75.61h-5.491V57.095c0-4.916-2.17-8.427-6.448-8.427c-3.447,0-6.065,2.809-6.958,5.618
		c-0.319,0.766-0.447,1.787-0.447,2.745V75.61h-5.49V53.073z"/>
	<path class="st0" d="M72.245,36.027c0,1.916-1.341,3.448-3.575,3.448c-2.043,0-3.384-1.532-3.384-3.448s1.404-3.511,3.512-3.511
		C70.841,32.516,72.245,34.048,72.245,36.027z M65.988,75.61v-30.9h5.618v30.9H65.988z"/>
	<path class="st0" d="M80.926,53.073c0-3.256-0.063-5.81-0.255-8.363h4.979l0.319,5.107h0.128c1.532-2.873,5.107-5.746,10.215-5.746
		c4.277,0,10.917,2.554,10.917,13.151V75.61h-5.618V57.798c0-4.98-1.852-9.13-7.15-9.13c-3.64,0-6.512,2.617-7.533,5.746
		c-0.256,0.702-0.384,1.66-0.384,2.618V75.61h-5.618V53.073z"/>
</g>
</svg>
