<?xml version="1.0" encoding="utf-8"?>
<!-- Generator: Adobe Illustrator 14.0.0, SVG Export Plug-In . SVG Version: 6.00 Build 43363)  -->
<!DOCTYPE svg PUBLIC "-//W3C//DTD SVG 1.1//EN" "http://www.w3.org/Graphics/SVG/1.1/DTD/svg11.dtd">
<svg version="1.1" id="Layer_1" xmlns="http://www.w3.org/2000/svg" xmlns:xlink="http://www.w3.org/1999/xlink" x="0px" y="0px"
	 width="32px" height="32px" viewBox="0 0 32 32" enable-background="new 0 0 32 32" xml:space="preserve">
<g id="Layer_1_1_">
</g>
<style type="text/css">
	.st0{fill:#000000;}
</style>
<g id="move">
	<g>
		<polygon class="st0" points="10.535,11.706 10.535,15.218 12.876,15.218 9.365,18.729 5.853,15.218 8.194,15.218 8.194,11.706 		"/>
		<polygon class="st0" points="8.194,7.024 8.194,3.512 5.853,3.512 9.365,0 12.876,3.512 10.535,3.512 10.535,7.024 		"/>
		<polygon class="st0" points="7.024,10.535 3.512,10.535 3.512,12.876 0,9.365 3.512,5.853 3.512,8.194 7.024,8.194 		"/>
		<polygon class="st0" points="11.706,8.194 15.218,8.194 15.218,5.853 18.729,9.365 15.218,12.876 15.218,10.535 11.706,10.535 		"/>
	</g>
</g>
<g>
	<path class="st0" d="M31.443,29.712l-4.46-4.459c1.286-2.239,0.934-5.085-0.926-6.942c-2.246-2.248-5.905-2.248-8.151,0
		c-2.248,2.246-2.248,5.905,0,8.151c1.855,1.857,4.704,2.212,6.945,0.923l4.456,4.463c0.235,0.235,0.619,0.235,0.856,0l1.279-1.28
		C31.679,30.329,31.679,29.947,31.443,29.712z M24.181,24.585c-1.213,1.212-3.184,1.212-4.396,0c-1.211-1.213-1.211-3.185,0-4.397
		c1.213-1.211,3.184-1.211,4.396,0C25.393,21.4,25.393,23.372,24.181,24.585z"/>
</g>
<line fill="none" stroke="#000000" stroke-width="2" x1="5.167" y1="27.665" x2="28.041" y2="4.791"/>
</svg>
