<?xml version="1.0" encoding="utf-8"?>
<!-- Generator: Adobe Illustrator 14.0.0, SVG Export Plug-In . SVG Version: 6.00 Build 43363)  -->
<!DOCTYPE svg PUBLIC "-//W3C//DTD SVG 1.1//EN" "http://www.w3.org/Graphics/SVG/1.1/DTD/svg11.dtd">
<svg version="1.1" id="Layer_1" xmlns="http://www.w3.org/2000/svg" xmlns:xlink="http://www.w3.org/1999/xlink" x="0px" y="0px"
	 width="32px" height="32px" viewBox="0 0 32 32" enable-background="new 0 0 32 32" xml:space="preserve">
<g id="Layer_1_1_">
</g>
<style type="text/css">
	.st0{fill:#000000;}
</style>
<g id="move">
	<g>
		<polygon class="st0" points="18,20 18,26 22,26 16,32 10,26 14,26 14,20 		"/>
		<polygon class="st0" points="14,12 14,6 10,6 16,0 22,6 18,6 18,12 		"/>
		<polygon class="st0" points="12,18 6,18 6,22 0,16 6,10 6,14 12,14 		"/>
		<polygon class="st0" points="20,14 26,14 26,10 32,16 26,22 26,18 20,18 		"/>
	</g>
</g>
<g>
	<g>
		<path class="st0"  d="M21.32,23.405c-0.247,0-0.479-0.097-0.653-0.27l-3.846-3.851c-0.784,0.398-1.655,0.608-2.537,0.608
			c-1.496,0-2.903-0.584-3.961-1.645c-2.185-2.185-2.185-5.74,0-7.925c1.057-1.057,2.465-1.639,3.963-1.639
			c1.498,0,2.905,0.582,3.963,1.639c1.72,1.716,2.128,4.349,1.035,6.496l3.85,3.847c0.357,0.358,0.358,0.944,0.003,1.306
			l-1.163,1.164C21.798,23.31,21.566,23.405,21.32,23.405L21.32,23.405z M14.287,11.842c-0.654,0-1.268,0.254-1.729,0.715
			c-0.953,0.954-0.953,2.505,0,3.458c0.461,0.461,1.076,0.715,1.729,0.715c0.653,0,1.268-0.254,1.729-0.715s0.715-1.076,0.715-1.729
			c0-0.654-0.254-1.268-0.715-1.729C15.555,12.096,14.94,11.842,14.287,11.842L14.287,11.842z"/>
		<path class="st0" fill="#FFFFFF" d="M14.287,9.06c1.339,0,2.678,0.51,3.697,1.529c1.688,1.684,2.008,4.266,0.838,6.298l4.048,4.045
			c0.213,0.214,0.213,0.561,0,0.777l-1.161,1.161c-0.107,0.106-0.248,0.159-0.389,0.159s-0.281-0.053-0.388-0.159l-4.044-4.048
			c-0.811,0.467-1.709,0.696-2.604,0.696c-1.347,0-2.684-0.521-3.696-1.534c-2.039-2.039-2.039-5.356,0-7.396
			C11.608,9.569,12.948,9.06,14.287,9.06 M14.287,17.105c0.722,0,1.444-0.275,1.994-0.825c1.101-1.1,1.101-2.888,0-3.988
			c-0.55-0.55-1.271-0.825-1.994-0.825s-1.444,0.275-1.995,0.825c-1.1,1.101-1.1,2.889,0,3.988
			C12.842,16.83,13.564,17.105,14.287,17.105 M14.287,8.31c-1.599,0-3.101,0.621-4.229,1.749c-2.331,2.332-2.331,6.125,0,8.456
			c1.129,1.131,2.63,1.754,4.226,1.754c0.849,0,1.688-0.183,2.458-0.53l3.659,3.662c0.244,0.245,0.57,0.379,0.918,0.379
			c0.346,0,0.671-0.134,0.917-0.376l1.163-1.164c0.503-0.513,0.502-1.334,0.001-1.837l-3.663-3.66
			c1.014-2.243,0.546-4.918-1.225-6.684C17.387,8.931,15.886,8.31,14.287,8.31L14.287,8.31z M14.287,16.355
			c-0.554,0-1.074-0.215-1.464-0.605c-0.807-0.807-0.807-2.12,0-2.928c0.39-0.39,0.91-0.605,1.464-0.605
			c0.553,0,1.073,0.215,1.463,0.605c0.391,0.391,0.605,0.911,0.605,1.464c0,0.553-0.215,1.073-0.605,1.463
			S14.84,16.355,14.287,16.355L14.287,16.355z"/>
	</g>
</g>
</svg>
