<?xml version="1.0" encoding="iso-8859-1"?>
<!-- Generator: Adobe Illustrator 18.1.1, SVG Export Plug-In . SVG Version: 6.00 Build 0)  -->
<svg version="1.1" id="Capa_1" xmlns="http://www.w3.org/2000/svg" xmlns:xlink="http://www.w3.org/1999/xlink" x="0px" y="0px"
	 viewBox="0 0 203.544 203.544" style="enable-background:new 0 0 203.544 203.544;" xml:space="preserve">
<style type="text/css">
	.st0{fill:#000000;}
</style>
<g>
	<path class="st0" d="M41.717,0L0.002,41.722l161.821,161.821l41.719-41.719L41.717,0z M41.717,8.049l153.78,153.776
		l-33.673,33.673l-4.452-4.459l23.245-23.255c0.92-0.913,0.92-2.391,0-3.303c-0.913-0.913-2.391-0.923-3.303,0l-23.255,23.245
		l-7.233-7.226l14.974-14.977c0.916-0.913,0.916-2.394,0-3.307c-0.92-0.923-2.387-0.923-3.307,0l-14.977,14.97l-5.973-5.98
		l14.974-14.967c0.905-0.913,0.905-2.405,0-3.314c-0.923-0.913-2.405-0.913-3.321,0l-14.967,14.967l-5.73-5.726l14.97-14.97
		c0.916-0.913,0.916-2.391,0-3.303c-0.913-0.923-2.391-0.923-3.31,0l-14.974,14.97l-6.471-6.488l23.252-23.245
		c0.913-0.923,0.913-2.405,0-3.314c-0.923-0.913-2.398-0.913-3.314,0l-23.248,23.255l-4.477-4.481l15.729-15.718
		c0.913-0.913,0.913-2.391-0.011-3.314c-0.909-0.913-2.387-0.913-3.303,0l-15.725,15.729l-5.977-5.98l15.722-15.729
		c0.916-0.913,0.916-2.391,0-3.303c-0.913-0.923-2.391-0.923-3.303,0l-15.729,15.718l-5.726-5.726l15.722-15.718
		c0.916-0.923,0.916-2.401,0-3.314c-0.916-0.913-2.398-0.913-3.31,0l-15.725,15.718l-6.546-6.546L106,93.147
		c0.913-0.913,0.905-2.391-0.011-3.303c-0.913-0.913-2.394-0.913-3.303-0.011l-23.255,23.259l-7.226-7.229l14.967-14.977
		c0.916-0.913,0.916-2.391-0.011-3.303c-0.902-0.923-2.384-0.913-3.296,0l-14.974,14.967l-5.984-5.98l14.977-14.967
		c0.905-0.913,0.905-2.401,0-3.303c-0.916-0.923-2.394-0.923-3.307-0.011L59.611,93.265l-5.73-5.737l14.963-14.967
		c0.92-0.913,0.913-2.391,0-3.314c-0.905-0.909-2.387-0.909-3.303,0L50.575,84.225l-6.481-6.474l23.255-23.259
		c0.905-0.913,0.905-2.401-0.004-3.314c-0.916-0.913-2.398-0.913-3.314,0L40.786,74.433l-4.47-4.477l15.718-15.718
		c0.913-0.913,0.913-2.391,0-3.303c-0.916-0.923-2.394-0.923-3.314,0L32.999,66.653l-5.973-5.977l15.718-15.718
		c0.916-0.923,0.916-2.401,0-3.314c-0.913-0.913-2.391-0.913-3.31,0L23.722,57.362l-5.737-5.726l15.722-15.729
		c0.916-0.902,0.916-2.384,0-3.303c-0.916-0.913-2.394-0.913-3.307,0L14.672,48.332l-6.617-6.628L41.717,8.049z"/>
</g>
</svg>
