<?xml version="1.0" encoding="UTF-8" standalone="no"?>
<!-- Generator: Adobe Illustrator 16.0.0, SVG Export Plug-In . SVG Version: 6.00 Build 0)  -->

<svg
   xmlns:dc="http://purl.org/dc/elements/1.1/"
   xmlns:cc="http://creativecommons.org/ns#"
   xmlns:rdf="http://www.w3.org/1999/02/22-rdf-syntax-ns#"
   xmlns:svg="http://www.w3.org/2000/svg"
   xmlns="http://www.w3.org/2000/svg"
   xmlns:sodipodi="http://sodipodi.sourceforge.net/DTD/sodipodi-0.dtd"
   xmlns:inkscape="http://www.inkscape.org/namespaces/inkscape"
   version="1.1"
   id="Layer_6"
   x="0px"
   y="0px"
   width="100px"
   height="100px"
   viewBox="0 0 100 100"
   enable-background="new 0 0 100 100"
   xml:space="preserve"
   inkscape:version="0.91 r13725"
   sodipodi:docname="scatter.svg"><metadata
     id="metadata9"><rdf:RDF><cc:Work
         rdf:about=""><dc:format>image/svg+xml</dc:format><dc:type
           rdf:resource="http://purl.org/dc/dcmitype/StillImage" /></cc:Work></rdf:RDF></metadata><defs
     id="defs7" /><sodipodi:namedview
     pagecolor="#ffffff"
     bordercolor="#666666"
     borderopacity="1"
     objecttolerance="10"
     gridtolerance="10"
     guidetolerance="10"
     inkscape:pageopacity="0"
     inkscape:pageshadow="2"
     inkscape:window-width="1920"
     inkscape:window-height="1060"
     id="namedview5"
     showgrid="false"
     inkscape:zoom="2.36"
     inkscape:cx="50"
     inkscape:cy="50"
     inkscape:window-x="-2"
     inkscape:window-y="-3"
     inkscape:window-maximized="1"
     inkscape:current-layer="Layer_6" /><style type="text/css">
	.st0{fill:#000000;}
</style>
<path class="st0" 
     d="m 90.056831,83.137258 0,4.369796 -80.113662,0 0,-75.014108 4.369797,0 0,70.645404 75.743865,0 z M 28.514804,36.344386 c 2.714736,0 4.916021,-2.201284 4.916021,-4.91602 0,-2.714736 -2.201285,-4.916021 -4.916021,-4.916021 -2.714736,0 -4.916021,2.201285 -4.916021,4.916021 0,2.714736 2.201285,4.91602 4.916021,4.91602 z M 44.90154,50 c 2.714736,0 4.916021,-2.201285 4.916021,-4.916021 0,-2.714736 -2.201285,-4.916021 -4.916021,-4.916021 -2.714736,0 -4.916021,2.201285 -4.916021,4.916021 0,2.714736 2.201285,4.916021 4.916021,4.916021 z m 25.126329,1.180937 c 2.714736,0 4.916021,-2.201284 4.916021,-4.91602 0,-2.714736 -2.201285,-4.916021 -4.916021,-4.916021 -2.714736,0 -4.916021,2.201285 -4.916021,4.916021 0,2.714736 2.201285,4.91602 4.916021,4.91602 z m 4.916021,11.756937 c 0,2.714736 2.201285,4.916021 4.916021,4.916021 2.714736,0 4.916021,-2.201285 4.916021,-4.916021 0,-2.714735 -2.201285,-4.91602 -4.916021,-4.91602 -2.714736,0 -4.916021,2.200192 -4.916021,4.91602 z m 0,-35.587621 c 2.714736,0 4.916021,-2.201285 4.916021,-4.916021 0,-2.714736 -2.201285,-4.916021 -4.916021,-4.916021 -2.714736,0 -4.916021,2.201285 -4.916021,4.916021 0,2.714736 2.201285,4.916021 4.916021,4.916021 z M 28.514804,62.937874 c 2.714736,0 4.916021,-2.201284 4.916021,-4.91602 0,-2.714736 -2.201285,-4.916021 -4.916021,-4.916021 -2.714736,0 -4.916021,2.201285 -4.916021,4.916021 0,2.714736 2.201285,4.91602 4.916021,4.91602 z m 16.386736,2.458011 c 0,2.714736 2.201285,4.916021 4.916021,4.916021 2.714736,0 4.916021,-2.201285 4.916021,-4.916021 0,-2.714736 -2.201285,-4.916021 -4.916021,-4.916021 -2.714736,0 -4.916021,2.201285 -4.916021,4.916021 z m 9.832042,-29.051499 c 2.714736,0 4.916021,-2.201284 4.916021,-4.91602 0,-2.714736 -2.201285,-4.916021 -4.916021,-4.916021 -2.714736,0 -4.916021,2.201285 -4.916021,4.916021 0,2.714736 2.201285,4.91602 4.916021,4.91602 z"
     id="path3"
     inkscape:connector-curvature="0" /></svg>