<?xml version="1.0" encoding="utf-8"?>
<!-- Generator: Adobe Illustrator 16.0.0, SVG Export Plug-In . SVG Version: 6.00 Build 0)  -->
<!DOCTYPE svg PUBLIC "-//W3C//DTD SVG 1.1//EN" "http://www.w3.org/Graphics/SVG/1.1/DTD/svg11.dtd">
<svg version="1.1" id="Layer_6" xmlns="http://www.w3.org/2000/svg" xmlns:xlink="http://www.w3.org/1999/xlink" x="0px" y="0px"
	 width="100px" height="100px" viewBox="0 0 100 100" enable-background="new 0 0 100 100" xml:space="preserve">
<path d="M91.334,80.333v4H18V15.667h4v64.667H91.334z M35,37.5c2.485,0,4.5-2.015,4.5-4.5s-2.015-4.5-4.5-4.5s-4.5,2.015-4.5,4.5
	S32.515,37.5,35,37.5z M50,50c2.485,0,4.5-2.015,4.5-4.5S52.485,41,50,41s-4.5,2.015-4.5,4.5S47.515,50,50,50z M73,51.081
	c2.485,0,4.5-2.015,4.5-4.5s-2.015-4.5-4.5-4.5s-4.5,2.015-4.5,4.5S70.515,51.081,73,51.081z M77.5,61.843
	c0,2.485,2.015,4.5,4.5,4.5s4.5-2.015,4.5-4.5s-2.015-4.5-4.5-4.5S77.5,59.357,77.5,61.843z M77.5,29.267c2.485,0,4.5-2.015,4.5-4.5
	s-2.015-4.5-4.5-4.5s-4.5,2.015-4.5,4.5S75.015,29.267,77.5,29.267z M35,61.843c2.485,0,4.5-2.015,4.5-4.5s-2.015-4.5-4.5-4.5
	s-4.5,2.015-4.5,4.5S32.515,61.843,35,61.843z M50,64.093c0,2.485,2.015,4.5,4.5,4.5s4.5-2.015,4.5-4.5s-2.015-4.5-4.5-4.5
	S50,61.608,50,64.093z M59,37.5c2.485,0,4.5-2.015,4.5-4.5s-2.015-4.5-4.5-4.5s-4.5,2.015-4.5,4.5S56.515,37.5,59,37.5z"/>
</svg>
