<?xml version="1.0" encoding="utf-8"?>
<!-- Generator: Adobe Illustrator 14.0.0, SVG Export Plug-In . SVG Version: 6.00 Build 43363)  -->
<!DOCTYPE svg PUBLIC "-//W3C//DTD SVG 1.1//EN" "http://www.w3.org/Graphics/SVG/1.1/DTD/svg11.dtd">
<svg version="1.1" id="Layer_1" xmlns="http://www.w3.org/2000/svg" xmlns:xlink="http://www.w3.org/1999/xlink" x="0px" y="0px"
	 width="100px" height="100px" viewBox="-50 516.93 100 100" enable-background="new -50 516.93 100 100" xml:space="preserve">
<path fill="#FFFFFF" stroke="#000000" d="M23.01,570.062"/>
<polyline fill="none" stroke="#000000" stroke-width="8" points="-37.321,522.965 37.321,522.965 37.321,610.895 	"/>
<path fill="#000000" d="M-7.28,560.403c1.85,8.433,19.411,3.003,29.811,14.558c9.406,10.451,14.845,24.611,14.789,35.935h-74.641v-87.93
	c12.94,0.116,22.694,5.454,32.467,9.59C10.977,539.257-9.498,550.279-7.28,560.403z M-13.865,585.533
	c0-5.201-2.612-9.418-5.834-9.418c-3.224,0-5.836,4.217-5.836,9.418c0,5.2,2.612,9.417,5.836,9.417
	C-16.477,594.95-13.865,590.734-13.865,585.533z"/>
</svg>
