<?xml version="1.0" encoding="utf-8"?>
<!-- Generator: Adobe Illustrator 16.0.0, SVG Export Plug-In . SVG Version: 6.00 Build 0)  -->
<!DOCTYPE svg PUBLIC "-//W3C//DTD SVG 1.1//EN" "http://www.w3.org/Graphics/SVG/1.1/DTD/svg11.dtd">
<svg version="1.1" id="Layer_5" xmlns="http://www.w3.org/2000/svg" xmlns:xlink="http://www.w3.org/1999/xlink" x="0px" y="0px"
	 width="100px" height="100px" viewBox="0 0 100 100" enable-background="new 0 0 100 100" xml:space="preserve">
<style type="text/css">
	.st0{fill:#000000;}
</style>
<path class="st0" d="M23.927,49h4.313v2h-4.313V49z M7.5,51h8.369v-2H7.5V51z M36.298,49v2H92.5v-2H36.298z M34.298,36.139v19.018
	c0,0.301-0.103,0.596-0.292,0.832l-6.919,8.705c-0.254,0.32-0.641,0.506-1.048,0.506c-0.002,0-0.003,0-0.004,0
	c-0.41,0-0.797-0.189-1.051-0.512l-6.829-8.705c-0.186-0.236-0.286-0.527-0.286-0.826V36.139c0-0.74,0.6-1.338,1.339-1.338h13.751
	C33.698,34.801,34.298,35.398,34.298,36.139z M30.24,44.225c0-0.373-0.304-0.678-0.678-0.678h-6.958
	c-0.374,0-0.678,0.305-0.678,0.678v9.623c0,0.152,0.051,0.299,0.145,0.418l3.456,4.406c0.129,0.162,0.324,0.26,0.531,0.26
	c0.001,0,0.002,0,0.002,0c0.207,0,0.402-0.096,0.53-0.256l3.503-4.406c0.095-0.119,0.146-0.268,0.146-0.422V44.225z"/>
</svg>
