<?xml version="1.0" encoding="utf-8"?>
<!-- Generator: Adobe Illustrator 15.0.0, SVG Export Plug-In . SVG Version: 6.00 Build 0)  -->
<!DOCTYPE svg PUBLIC "-//W3C//DTD SVG 1.1//EN" "http://www.w3.org/Graphics/SVG/1.1/DTD/svg11.dtd">
<svg version="1.1" id="Capa_1" xmlns="http://www.w3.org/2000/svg" xmlns:xlink="http://www.w3.org/1999/xlink" x="0px" y="0px"
	 width="114.498px" height="114.497px" viewBox="0 0 114.498 114.497" enable-background="new 0 0 114.498 114.497"
	 xml:space="preserve">
<style type="text/css">
	.st0{fill:#000000;}
</style>
<g enable-background="new    ">
	<path class="st0" d="M70.261,40.748c6.726,4.72,10.62,12.979,10.62,21.593c0,21.004-14.396,30.207-27.375,30.207
		c-15.339,0-27.375-11.21-27.375-29.263c0-19.116,12.154-30.325,29.381-30.325c3.186,0,9.322,0,10.974,0h6.254
		c3.894,0,10.737,0.118,12.861-0.118l-0.354,7.906c-2.714,0-6.607,0-14.985-0.354V40.748z M70.615,62.341
		c0-9.558-4.956-21.593-16.756-21.593c-11.799,0-17.109,11.328-17.109,22.065c0,12.508,7.198,21.947,17.109,21.947
		C63.181,84.76,70.615,75.321,70.615,62.341z"/>
</g>
</svg>
