<?xml version="1.0" encoding="utf-8"?>
<!-- Generator: Adobe Illustrator 15.0.0, SVG Export Plug-In . SVG Version: 6.00 Build 0)  -->
<!DOCTYPE svg PUBLIC "-//W3C//DTD SVG 1.1//EN" "http://www.w3.org/Graphics/SVG/1.1/DTD/svg11.dtd">
<svg version="1.1" id="Capa_1" xmlns="http://www.w3.org/2000/svg" xmlns:xlink="http://www.w3.org/1999/xlink" x="0px" y="0px"
	 width="114.498px" height="114.497px" viewBox="0 0 114.498 114.497" enable-background="new 0 0 114.498 114.497"
	 xml:space="preserve">
<style type="text/css">
	.st0{fill:#000000;}
</style>
<g enable-background="new    ">
	<path class="st0" d="M35.672,73.953c0,3.522,0.167,6.961,0.587,9.729h-6.625l-0.587-5.115h-0.251c-2.264,3.187-6.625,6.038-12.412,6.038
		c-8.218,0-12.412-5.787-12.412-11.657c0-9.812,8.722-15.179,24.404-15.096v-0.838c0-3.271-0.922-9.393-9.225-9.309
		c-3.857,0-7.799,1.09-10.65,3.019l-1.677-4.948c3.354-2.096,8.302-3.521,13.418-3.521c12.412,0,15.431,8.47,15.431,16.521V73.953z
		 M28.543,62.967c-8.051-0.168-17.192,1.258-17.192,9.141c0,4.864,3.187,7.045,6.877,7.045c5.367,0,8.805-3.354,9.979-6.793
		c0.251-0.839,0.335-1.678,0.335-2.349V62.967z"/>
	<path class="st0" d="M64.688,58.355v5.367H43.974v-5.367H64.688z"/>
	<path class="st0" d="M73.325,24.139h7.297v25.494h0.168c2.6-4.528,7.295-7.38,13.836-7.38c10.148,0,17.192,8.386,17.192,20.63
		c0,14.508-9.226,21.721-18.282,21.721c-5.87,0-10.566-2.265-13.67-7.548h-0.167l-0.419,6.625h-6.29
		c0.167-2.768,0.335-6.877,0.335-10.482V24.139z M80.622,67.412c0,0.923,0.084,1.846,0.335,2.684
		c1.342,5.116,5.702,8.638,11.069,8.638c7.8,0,12.328-6.289,12.328-15.598c0-8.135-4.193-15.096-12.16-15.096
		c-4.947,0-9.645,3.522-11.153,9.058c-0.251,0.922-0.419,1.929-0.419,3.103V67.412z"/>
</g>
</svg>
