<?xml version="1.0" encoding="iso-8859-1"?>
<!-- Generator: Adobe Illustrator 16.0.0, SVG Export Plug-In . SVG Version: 6.00 Build 0)  -->
<!DOCTYPE svg PUBLIC "-//W3C//DTD SVG 1.1//EN" "http://www.w3.org/Graphics/SVG/1.1/DTD/svg11.dtd">
<svg version="1.1" id="Capa_1" xmlns="http://www.w3.org/2000/svg" xmlns:xlink="http://www.w3.org/1999/xlink" x="0px" y="0px"
	 width="114.498px" height="114.497px" viewBox="0 0 114.498 114.497" style="enable-background:new 0 0 114.498 114.497;"
	 xml:space="preserve">
<style type="text/css">
	.st0{fill:#000000;}
</style>
<path class="st0" d="M4.215,109.997c1.135,2.725,3.798,4.5,6.748,4.5h92.571c4.037,0,7.309-3.271,7.309-7.31V85.264
	c0-4.037-3.271-7.309-7.309-7.309s-7.31,3.271-7.31,7.309v14.615H28.525L62,66.182c2.68-2.699,2.844-7.004,0.373-9.896
	L26.81,14.617h69.416v4.872c0,4.037,3.271,7.308,7.31,7.308s7.309-3.271,7.309-7.308V7.309c0-4.037-3.271-7.309-7.309-7.309
	H10.963C8.112,0,5.521,1.659,4.327,4.249c-1.194,2.59-0.772,5.637,1.077,7.805l41.484,48.604L5.779,102.038
	C3.698,104.132,3.082,107.271,4.215,109.997z"/>
</svg>
