<?xml version="1.0" encoding="UTF-8" standalone="no"?>
<!-- Generator: Adobe Illustrator 15.0.0, SVG Export Plug-In . SVG Version: 6.00 Build 0)  -->

<svg
   xmlns:dc="http://purl.org/dc/elements/1.1/"
   xmlns:cc="http://creativecommons.org/ns#"
   xmlns:rdf="http://www.w3.org/1999/02/22-rdf-syntax-ns#"
   xmlns:svg="http://www.w3.org/2000/svg"
   xmlns="http://www.w3.org/2000/svg"
   xmlns:sodipodi="http://sodipodi.sourceforge.net/DTD/sodipodi-0.dtd"
   xmlns:inkscape="http://www.inkscape.org/namespaces/inkscape"
   version="1.1"
   id="Layer_1"
   x="0px"
   y="0px"
   width="50px"
   height="50px"
   viewBox="0 0 50 50"
   enable-background="new 0 0 50 50"
   xml:space="preserve"
   inkscape:version="0.91 r13725"
   sodipodi:docname="t_over_lambda.svg"><metadata
     id="metadata19"><rdf:RDF><cc:Work
         rdf:about=""><dc:format>image/svg+xml</dc:format><dc:type
           rdf:resource="http://purl.org/dc/dcmitype/StillImage" /></cc:Work></rdf:RDF></metadata><defs
     id="defs17" /><sodipodi:namedview
     pagecolor="#ffffff"
     bordercolor="#666666"
     borderopacity="1"
     objecttolerance="10"
     gridtolerance="10"
     guidetolerance="10"
     inkscape:pageopacity="0"
     inkscape:pageshadow="2"
     inkscape:window-width="872"
     inkscape:window-height="480"
     id="namedview15"
     showgrid="false"
     inkscape:zoom="4.72"
     inkscape:cx="25"
     inkscape:cy="25"
     inkscape:window-x="0"
     inkscape:window-y="0"
     inkscape:window-maximized="0"
     inkscape:current-layer="Layer_1" />
		<style type="text/css">
			.st0{fill:#000000;}
		</style>

	<g
     id="g4147"
     transform="translate(-0.50600008,-0.21)">
	 <g transform="matrix(0.80631311,0,0,0.80631311,4.9401779,4.8828465)"
       id="g3">
	   <path class="st0" 
	     inkscape:connector-curvature="0"
         id="path5"
         d="m 33.285,48.68 -5.77,0 8.604,-16.874 -0.277,-0.94 c -0.277,-0.935 -0.651,-1.766 -1.12,-2.493 -0.47,-0.728 -1.199,-1.091 -2.191,-1.091 -1.798,0 -2.835,0.894 -3.112,2.679 l -0.734,0 c 0.238,-3.927 1.521,-5.891 3.847,-5.891 1.864,0 3.166,1.325 3.906,3.975 l 3.966,14.089 c 0.396,1.407 0.843,2.351 1.339,2.83 0.495,0.479 1.152,0.718 1.973,0.718 0.806,0 1.483,-0.225 2.032,-0.674 0.549,-0.449 0.836,-1.088 0.862,-1.916 l 0.734,0 c 0.025,0.378 0.039,0.656 0.039,0.834 0,1.443 -0.311,2.635 -0.932,3.575 -0.622,0.94 -1.566,1.41 -2.836,1.41 -1.07,0 -1.863,-0.295 -2.379,-0.887 -0.516,-0.592 -1.012,-1.739 -1.487,-3.442 l -1.665,-5.838 -4.799,9.936 z" /></g><g
       transform="matrix(0.80631311,0,0,0.80631311,4.9401779,4.8828465)"
       id="g7">
	   <path class="st0" 
         inkscape:connector-curvature="0"
         id="path9"
         d="m 37.726,9.225 -23.646,31.707 -3.241,0 23.645,-31.707 3.242,0 z" /></g><g
       transform="matrix(0.80631311,0,0,0.80631311,4.9401779,4.8828465)"
       id="g11">
	   <path class="st0" 
         inkscape:connector-curvature="0"
         id="path13"
         d="m 11.6,1.51 0,6.068 4.401,0 0,1.757 -4.401,0 0,10.238 c 0,0.958 0.049,1.577 0.148,1.854 0.099,0.277 0.274,0.503 0.525,0.674 0.251,0.171 0.482,0.257 0.694,0.257 0.859,0 1.672,-0.585 2.439,-1.756 l 0.595,0.39 c -1.07,2.271 -2.809,3.407 -5.214,3.407 -1.177,0 -2.171,-0.292 -2.984,-0.878 C 6.99,22.935 6.471,22.282 6.246,21.56 6.114,21.158 6.048,20.07 6.048,18.295 l 0,-8.96 -2.419,0 0,-0.622 C 5.295,7.66 6.712,6.554 7.882,5.395 9.051,4.236 10.073,2.94 10.945,1.509 l 0.655,0 z" /></g></g></svg>