<?xml version="1.0" encoding="iso-8859-1"?>
<!-- Generator: Adobe Illustrator 16.0.0, SVG Export Plug-In . SVG Version: 6.00 Build 0)  -->
<!DOCTYPE svg PUBLIC "-//W3C//DTD SVG 1.1//EN" "http://www.w3.org/Graphics/SVG/1.1/DTD/svg11.dtd">
<svg version="1.1" id="Capa_1" xmlns="http://www.w3.org/2000/svg" xmlns:xlink="http://www.w3.org/1999/xlink" x="0px" y="0px"
	 width="25.924px" height="25.924px" viewBox="0 0 25.924 25.924" style="enable-background:new 0 0 25.924 25.924;"
	 xml:space="preserve">
<g>
	<path fill="#000000" d="M4.699,2.278C2.107,2.278,0,4.386,0,6.977c0,2.593,2.107,4.698,4.699,4.698s4.7-2.106,4.699-4.698
		C9.398,4.386,7.291,2.278,4.699,2.278z M4.699,9.327c-1.295,0-2.35-1.054-2.35-2.35c0-1.294,1.055-2.35,2.35-2.35
		s2.35,1.055,2.35,2.35C7.049,8.273,5.994,9.327,4.699,9.327z M21.324,19.971c-3.91,0-6.227-2.463-6.227-6.369
		c0-4.342,2.721-6.456,6.195-6.456c1.592,0,2.836,0.349,3.703,0.725l0.928-3.475c-0.782-0.435-2.52-0.869-4.807-0.869
		c-5.904,0-10.652,3.678-10.652,10.336c0,5.558,3.475,9.783,10.221,9.783c2.346,0,4.198-0.464,4.979-0.841l-0.637-3.473
		C24.131,19.709,22.683,19.971,21.324,19.971z"/>
</g>
</svg>
