<?xml version="1.0" encoding="iso-8859-1"?>
<!-- Generator: Adobe Illustrator 16.0.0, SVG Export Plug-In . SVG Version: 6.00 Build 0)  -->
<!DOCTYPE svg PUBLIC "-//W3C//DTD SVG 1.1//EN" "http://www.w3.org/Graphics/SVG/1.1/DTD/svg11.dtd">
<svg version="1.1" id="Capa_1" xmlns="http://www.w3.org/2000/svg" xmlns:xlink="http://www.w3.org/1999/xlink" x="0px" y="0px"
	 width="932.05px" height="932.05px" viewBox="0 0 932.05 932.05" style="enable-background:new 0 0 932.05 932.05;"
	 xml:space="preserve">
<style type="text/css">
	.st0{fill:#000000;}
</style>
<path class="st0" d="M146.375,658.475l121.7-121.699c-7.9-22.101-12.2-45.9-12.2-70.7c0-116.101,94.1-210.1,210.1-210.1
			c24.801,0,48.601,4.3,70.7,12.2l83.101-83.1c-48.5-15.3-100.2-23.5-153.7-23.5c-205.6,0-382.8,121.2-464.2,296.1
			c-2.5,5.3-2.5,11.5,0,16.9C35.375,546.475,85.075,609.375,146.375,658.475z"/>
<path class="st0" d="M785.675,273.675l-121.7,121.7c7.9,22.1,12.2,45.9,12.2,70.7c0,116.1-94.1,210.1-210.1,210.1
			c-24.8,0-48.601-4.3-70.7-12.2l-83.1,83.101c48.5,15.3,100.199,23.5,153.699,23.5c205.601,0,382.801-121.2,464.2-296.101
			c2.5-5.3,2.5-11.5,0-16.899C896.675,385.675,846.975,322.775,785.675,273.675z"/>
<path class="st0" d="M466.075,600.575c74.3,0,134.5-60.2,134.5-134.5c0-2.3-0.101-4.7-0.2-7l-141.3,141.3
			C461.375,600.475,463.675,600.575,466.075,600.575z"/>
<path class="st0" d="M466.075,331.675c-74.3,0-134.5,60.2-134.5,134.5c0,2.3,0.1,4.7,0.2,7l141.3-141.3
			C470.675,331.675,468.375,331.675,466.075,331.675z"/>
<path class="st0" d="M178.875,682.475l-63.2,63.2c-19.5,19.5-19.5,51.2,0,70.7c9.8,9.8,22.6,14.6,35.4,14.6c12.8,0,25.6-4.899,35.4-14.6
			l84.4-84.4l86.2-86.199l56.1-56.101l176.601-176.6l56.1-56.101l107.4-107.399l63.199-63.2c19.5-19.5,19.5-51.2,0-70.7
			c-9.8-9.8-22.6-14.6-35.399-14.6s-25.601,4.9-35.4,14.6l-84.399,84.4l-86.2,86.2l-56.101,56.1l-176.6,176.6l-56.1,56.101
			L178.875,682.475z"/>
</svg>
