<?xml version="1.0" encoding="iso-8859-1"?>
<!-- Generator: Adobe Illustrator 16.0.0, SVG Export Plug-In . SVG Version: 6.00 Build 0)  -->
<!DOCTYPE svg PUBLIC "-//W3C//DTD SVG 1.1//EN" "http://www.w3.org/Graphics/SVG/1.1/DTD/svg11.dtd">
<svg version="1.1" id="Layer_1" xmlns="http://www.w3.org/2000/svg" xmlns:xlink="http://www.w3.org/1999/xlink" x="0px" y="0px"
	 width="512px" height="512px" viewBox="0 0 512 512" style="enable-background:new 0 0 512 512;" xml:space="preserve">
<style type="text/css">
	.st0{fill:#000000;}
</style>
<path class="st0" d="M441.21,388.673L331.402,278.866c31.707-55.131,22.968-125.203-22.758-170.928c-55.334-55.334-145.368-55.334-200.704,0
	c-55.334,55.336-55.334,145.371,0,200.709c45.724,45.721,115.797,54.461,170.927,22.756L388.674,441.21
	c5.804,5.805,15.211,5.799,21.015,0l31.521-31.521C447.011,403.886,447.011,394.476,441.21,388.673z M262.413,262.415
	c-29.841,29.836-78.399,29.84-108.239,0c-29.842-29.844-29.842-78.402,0-108.242c29.84-29.844,78.398-29.844,108.239,0
	C292.252,184.015,292.252,232.571,262.413,262.415z"/>
</svg>
