<?xml version="1.0" encoding="utf-8"?>
<!-- Generator: Adobe Illustrator 15.0.0, SVG Export Plug-In . SVG Version: 6.00 Build 0)  -->
<!DOCTYPE svg PUBLIC "-//W3C//DTD SVG 1.1//EN" "http://www.w3.org/Graphics/SVG/1.1/DTD/svg11.dtd">
<svg version="1.1" id="Layer_1" xmlns="http://www.w3.org/2000/svg" xmlns:xlink="http://www.w3.org/1999/xlink" x="0px" y="0px"
	 width="85.75px" height="78.625px" viewBox="0 0 85.75 78.625" enable-background="new 0 0 85.75 78.625" xml:space="preserve">
<polygon points="80.542,63.874 80.542,73.458 7.208,73.458 7.208,4.792 17.125,4.792 17.125,63.875 80.542,63.875 "/>
<line fill="none" x1="17.125" y1="11.625" x2="76.625" y2="62.125"/>
<g>
	<g>
		<path d="M22.821,60.214c6.655-2.759,6.132-14.406,6.679-20.304c0.697-7.513,0.309-17.083,2.188-23.546
			c-0.91,2.718-3.45,2.962-7.62,0.732c-0.302-0.779-0.367-0.915-0.197-0.408c0.229,0.716,0.342,1.476,0.474,2.213
			c0.724,4.064,1.24,8.152,2.063,12.203c1.436,7.062,3.497,15.052,8.634,20.398c1.939,2.018,4.491,2.918,7.208,3.15
			c1.741,0.148,2.191-0.344,3.798,0.648c1.524,0.94,2.799,1.923,4.464,2.655c8.016,3.525,17.453,4.327,26.111,4.418
			c5.806,0.062,5.8-8.938,0-9c-7.86-0.083-17.448-0.457-24.38-4.625c-3.191-1.92-5.706-3.91-9.682-3.129
			c-1.742,0.342-3.232-3.432-3.779-4.525c-3.731-7.451-4.424-16.495-5.76-24.586c-0.538-3.26-2.368-7.505-6.582-6.214
			c-3.482,1.066-3.727,4.77-4.114,7.785c-0.535,4.166-0.763,8.378-1.077,12.564c-0.372,4.948-0.751,9.896-1.326,14.826
			c-0.207,1.771-0.487,3.534-0.855,5.279c-0.132,0.627-0.301,1.244-0.487,1.856c-0.189,0.522-0.171,0.511,0.054-0.033
			c-0.565,1.288-1.074,0.151,1.792-1.036C15.147,53.726,17.46,62.438,22.821,60.214L22.821,60.214z"/>
	</g>
</g>
<text transform="matrix(1 0 0 1 36 36.2427)" font-family="'Calibri-Bold'" font-size="48">FR</text>
</svg>
