<?xml version="1.0" encoding="utf-8"?>
<!-- Generator: Adobe Illustrator 14.0.0, SVG Export Plug-In . SVG Version: 6.00 Build 43363)  -->
<!DOCTYPE svg PUBLIC "-//W3C//DTD SVG 1.1//EN" "http://www.w3.org/Graphics/SVG/1.1/DTD/svg11.dtd">
<svg version="1.1" id="svg8668" xmlns:svg="http://www.w3.org/2000/svg"
	 xmlns="http://www.w3.org/2000/svg" xmlns:xlink="http://www.w3.org/1999/xlink" x="0px" y="0px" width="417px" height="453px"
	 viewBox="0 0 417 453" enable-background="new 0 0 417 453" xml:space="preserve">
<linearGradient id="path11377_2_" gradientUnits="userSpaceOnUse" x1="513.8396" y1="792.7795" x2="146.0812" y2="524.4324" gradientTransform="matrix(1.0003 0 0 1.0002 -5.6301 -501.52)">
	<stop  offset="0" style="stop-color:#FF3D1F"/>
	<stop  offset="1" style="stop-color:#FF958B"/>
</linearGradient>
<path id="path11377_1_" opacity="0.5" fill="url(#path11377_2_)" stroke="#000000" stroke-width="3" stroke-linejoin="bevel" enable-background="new    " d="
	M172.944,211.051L166.702,0.979l248.909,58.408l-28.8,221.732L172.944,211.051z"/>
<linearGradient id="path10484_2_" gradientUnits="userSpaceOnUse" x1="136.5095" y1="668.3772" x2="320.1019" y2="1006.5558" gradientTransform="matrix(1.0003 0 0 1.0002 -5.6301 -501.52)">
	<stop  offset="0" style="stop-color:#0CD000"/>
	<stop  offset="1" style="stop-color:#73FF91"/>
</linearGradient>
<path id="path10484_1_" opacity="0.5" fill="url(#path10484_2_)" stroke="#000000" stroke-width="3" stroke-linejoin="bevel" enable-background="new    " d="
	M36.842,350.894l136.103-139.843l213.868,70.068L279.73,452.142L36.842,350.894z"/>
<linearGradient id="path10474_2_" gradientUnits="userSpaceOnUse" x1="-48.6594" y1="799.0852" x2="279.3023" y2="516.5293" gradientTransform="matrix(1.0003 0 0 1.0002 -5.6301 -501.52)">
	<stop  offset="0" style="stop-color:#CC2EFF"/>
	<stop  offset="1" style="stop-color:#A900FF"/>
</linearGradient>
<path id="path10474_1_" opacity="0.5" fill="url(#path10474_2_)" stroke="#000000" stroke-width="3" stroke-linejoin="bevel" enable-background="new    " d="
	M1.162,118.257L166.702,0.979l6.241,210.072L36.842,350.894L1.162,118.257z"/>
<linearGradient id="path19493_2_" gradientUnits="userSpaceOnUse" x1="140.5974" y1="700.5081" x2="439.3804" y2="789.8876" gradientTransform="matrix(1.0003 0 0 1.0002 -5.1662 -501.5884)">
	<stop  offset="0" style="stop-color:#247CD5"/>
	<stop  offset="1" style="stop-color:#69DDEA"/>
</linearGradient>
<path id="path19493_1_" opacity="0.5" fill="url(#path19493_2_)" stroke="#000000" stroke-width="3" stroke-linejoin="bevel" enable-background="new    " d="
	M172.944,211.051l21.726-1.167l116.56,35.574l75.583,35.661L172.944,211.051z"/>
<linearGradient id="path19495_2_" gradientUnits="userSpaceOnUse" x1="256.8992" y1="700.7434" x2="455.4792" y2="662.1395" gradientTransform="matrix(1.0003 0 0 1.0002 -5.1662 -501.5884)">
	<stop  offset="0" style="stop-color:#FF3D1F"/>
	<stop  offset="1" style="stop-color:#FF958B"/>
</linearGradient>
<path id="path19495_1_" opacity="0.5" fill="url(#path19495_2_)" stroke="#000000" stroke-width="3" stroke-linejoin="bevel" enable-background="new    " d="
	M311.229,245.458l3.607-109.354l100.774-76.717l-28.8,221.732L311.229,245.458z"/>
<linearGradient id="path20386_2_" gradientUnits="userSpaceOnUse" x1="159.7903" y1="490.97" x2="201.0599" y2="732.5947" gradientTransform="matrix(1.0003 0 0 1.0002 -5.1662 -501.5884)">
	<stop  offset="0" style="stop-color:#CC2EFF"/>
	<stop  offset="1" style="stop-color:#A900FF"/>
</linearGradient>
<path id="path20386_1_" opacity="0.5" fill="url(#path20386_2_)" stroke="#000000" stroke-width="3" stroke-linejoin="bevel" enable-background="new    " d="
	M166.702,0.979l6.241,210.072l21.726-1.167l-1.06-107.075L166.702,0.979z"/>
<linearGradient id="path20427_2_" gradientUnits="userSpaceOnUse" x1="313.4919" y1="684.9827" x2="339.2651" y2="1022.0969" gradientTransform="matrix(1.0003 0 0 1.0002 -5.1662 -501.145)">
	<stop  offset="0" style="stop-color:#FFFF17"/>
	<stop  offset="1" style="stop-color:#FFE800"/>
</linearGradient>
<path id="path20427_1_" opacity="0.5" fill="url(#path20427_2_)" stroke="#000000" stroke-width="3" stroke-linejoin="bevel" enable-background="new    " d="
	M311.192,245.316l-62.787,81.55L279.693,452l107.082-171.022L311.192,245.316z"/>
<linearGradient id="path21310_2_" gradientUnits="userSpaceOnUse" x1="159.2092" y1="670.4797" x2="83.2797" y2="890.195" gradientTransform="matrix(1.0003 0 0 1.0002 -5.1662 -501.145)">
	<stop  offset="0" style="stop-color:#0CD000"/>
	<stop  offset="1" style="stop-color:#73FF91"/>
</linearGradient>
<path id="path21310_1_" opacity="0.5" fill="url(#path21310_2_)" stroke="#000000" stroke-width="3" stroke-linejoin="bevel" enable-background="new    " d="
	M36.842,350.894l89.889-68.092l67.939-72.918l-21.726,1.167L36.842,350.894z"/>
<path id="path14961_1_" opacity="0.5" fill="none" stroke="#000000" stroke-width="3" stroke-linejoin="bevel" enable-background="new    " d="
	M194.67,209.884l-1.06-107.075l121.227,33.295l-3.607,109.354L194.67,209.884z"/>
<linearGradient id="path14078_2_" gradientUnits="userSpaceOnUse" x1="208.6472" y1="629.7581" x2="237.3495" y2="873.5895" gradientTransform="matrix(1.0003 0 0 1.0002 -5.6872 -501.2993)">
	<stop  offset="0" style="stop-color:#247CD5"/>
	<stop  offset="1" style="stop-color:#69DDEA"/>
</linearGradient>
<path id="path14078_1_" opacity="0.5" fill="url(#path14078_2_)" stroke="#000000" stroke-width="3" stroke-linejoin="bevel" enable-background="new    " d="
	M194.67,209.884l-67.939,72.918l121.712,44.205l62.787-81.55L194.67,209.884z"/>
<path id="path13195_1_" opacity="0.5" fill="none" stroke="#000000" stroke-width="3" stroke-linejoin="bevel" enable-background="new    " d="
	M193.61,102.809l1.06,107.075l-67.939,72.918l-6.826-113.938L193.61,102.809z"/>
<linearGradient id="path11419_2_" gradientUnits="userSpaceOnUse" x1="253.574" y1="550.4153" x2="189.0927" y2="780.1672" gradientTransform="matrix(1.0003 0 0 1.0002 -5.6872 -501.2993)">
	<stop  offset="0" style="stop-color:#247CD5"/>
	<stop  offset="1" style="stop-color:#69DDEA"/>
</linearGradient>
<path id="path11419_1_" opacity="0.5" fill="url(#path11419_2_)" stroke="#000000" stroke-width="3" stroke-linejoin="bevel" enable-background="new    " d="
	M121.513,168.865l73.707-66.057l121.227,33.295l-63.433,73.927L121.513,168.865z"/>
<linearGradient id="path11421_2_" gradientUnits="userSpaceOnUse" x1="303.9968" y1="602.2249" x2="269.2191" y2="860.1723" gradientTransform="matrix(1.0003 0 0 1.0002 -5.6872 -501.2993)">
	<stop  offset="0" style="stop-color:#FFFF17"/>
	<stop  offset="1" style="stop-color:#FFE800"/>
</linearGradient>
<path id="path11421_1_" opacity="0.5" fill="url(#path11421_2_)" stroke="#000000" stroke-width="3" stroke-linejoin="bevel" enable-background="new    " d="
	M251.405,210.031l-2.963,116.977l62.787-81.55l3.607-109.354L251.405,210.031z"/>
<linearGradient id="path12312_2_" gradientUnits="userSpaceOnUse" x1="197.5618" y1="626.1448" x2="183.3009" y2="852.1085" gradientTransform="matrix(1.0003 0 0 1.0002 -5.6872 -501.2993)">
	<stop  offset="0" style="stop-color:#0CD000"/>
	<stop  offset="1" style="stop-color:#73FF91"/>
</linearGradient>
<path id="path12312_1_" opacity="0.5" fill="url(#path12312_2_)" stroke="#000000" stroke-width="3" stroke-linejoin="bevel" enable-background="new    " d="
	M119.904,168.865l131.501,41.166l-2.963,116.977L126.73,282.803L119.904,168.865z"/>
<linearGradient id="path16799_2_" gradientUnits="userSpaceOnUse" x1="284.5222" y1="464.5334" x2="322.4955" y2="675.6268" gradientTransform="matrix(1.0003 0 0 1.0002 -5.4963 -501.395)">
	<stop  offset="0.2242" style="stop-color:#CF002C"/>
	<stop  offset="1" style="stop-color:#FF958B"/>
</linearGradient>
<path id="path16799_1_" opacity="0.5" fill="url(#path16799_2_)" stroke="#000000" stroke-width="3" stroke-linejoin="bevel" enable-background="new    " d="
	M166.702,0.979l248.909,58.408l-100.774,76.717L193.61,102.809L166.702,0.979z"/>
<linearGradient id="path15916_2_" gradientUnits="userSpaceOnUse" x1="301.9363" y1="565.6926" x2="375.7739" y2="706.0818" gradientTransform="matrix(1.0003 0 0 1.0002 -5.4963 -501.395)">
	<stop  offset="0" style="stop-color:#247CD5"/>
	<stop  offset="1" style="stop-color:#69DDEA"/>
</linearGradient>
<path id="path15916_1_" opacity="0.5" fill="url(#path15916_2_)" stroke="#000000" stroke-width="3" stroke-linejoin="bevel" enable-background="new    " d="
	M251.405,210.031l63.433-73.928l100.774-76.717l-122.093,150.34L251.405,210.031z"/>
<linearGradient id="path17682_2_" gradientUnits="userSpaceOnUse" x1="57.6243" y1="489.0598" x2="147.678" y2="692.6554" gradientTransform="matrix(1.0003 0 0 1.0002 -5.4963 -501.395)">
	<stop  offset="0" style="stop-color:#CC2EFF"/>
	<stop  offset="1" style="stop-color:#A900FF"/>
</linearGradient>
<path id="path17682_1_" opacity="0.5" fill="url(#path17682_2_)" stroke="#000000" stroke-width="3" stroke-linejoin="bevel" enable-background="new    " d="
	M1.162,118.257L166.702,0.979l26.908,101.83l-73.707,66.057L1.162,118.257z"/>
<linearGradient id="path9576_2_" gradientUnits="userSpaceOnUse" x1="133.6448" y1="727.9084" x2="178.4463" y2="581.2999" gradientTransform="matrix(1.0003 0 0 1.0002 -5.4963 -501.395)">
	<stop  offset="0" style="stop-color:#247CD5"/>
	<stop  offset="1" style="stop-color:#69DDEA"/>
</linearGradient>
<path id="path9576_1_" opacity="0.5" fill="url(#path9576_2_)" stroke="#000000" stroke-width="3" stroke-linejoin="bevel" enable-background="new    " d="
	M1.162,118.257l118.741,50.608l131.501,41.166l42.114-0.305L1.162,118.257z"/>
<linearGradient id="path18579_2_" gradientUnits="userSpaceOnUse" x1="40.7937" y1="621.3635" x2="111.4454" y2="858.5415" gradientTransform="matrix(1.0003 0 0 1.0002 -5.1662 -501.145)">
	<stop  offset="0" style="stop-color:#0CD000"/>
	<stop  offset="1" style="stop-color:#73FF91"/>
</linearGradient>
<path id="path18579_1_" opacity="0.5" fill="url(#path18579_2_)" stroke="#000000" stroke-width="3" stroke-linejoin="bevel" enable-background="new    " d="
	M0,118.257l118.741,50.608l6.826,113.938l-89.889,68.092L0,118.257z"/>
<linearGradient id="path19462_2_" gradientUnits="userSpaceOnUse" x1="272.363" y1="690.8235" x2="285.9427" y2="979.0146" gradientTransform="matrix(1.0003 0 0 1.0002 -5.1662 -501.145)">
	<stop  offset="0" style="stop-color:#FFFF17"/>
	<stop  offset="1" style="stop-color:#FFE800"/>
</linearGradient>
<path id="path19462_1_" opacity="0.5" fill="url(#path19462_2_)" stroke="#000000" stroke-width="3" stroke-linejoin="bevel" enable-background="new    " d="
	M293.519,209.727l-42.114,0.305l-2.963,116.977l31.288,125.135L293.519,209.727z"/>
<linearGradient id="path19472_2_" gradientUnits="userSpaceOnUse" x1="192.9568" y1="722.9934" x2="151.787" y2="973.0308" gradientTransform="matrix(1.0003 0 0 1.0002 -5.1662 -501.145)">
	<stop  offset="0" style="stop-color:#0CD000"/>
	<stop  offset="1" style="stop-color:#73FF91"/>
</linearGradient>
<path id="path19472_1_" opacity="0.5" fill="url(#path19472_2_)" stroke="#000000" stroke-width="3" stroke-linejoin="bevel" enable-background="new    " d="
	M126.729,282.802l121.712,44.205l31.288,125.135L36.842,350.894L126.729,282.802z"/>
<path id="path8686_1_" opacity="0.5" fill="none" stroke="#000000" stroke-width="3" stroke-linejoin="bevel" enable-background="new    " d="
	M1.162,118.257L166.702,0.979l248.909,58.408l-122.093,150.34L1.162,118.257z"/>
<path id="path10461_1_" opacity="0.5" fill="none" stroke="#000000" stroke-width="3" stroke-linejoin="bevel" enable-background="new    " d="
	M1.162,118.257l35.679,232.638l242.89,101.247l13.789-242.416L1.162,118.257z"/>
<path id="path10494_1_" opacity="0.5" fill="none" stroke="#000000" stroke-width="3" stroke-linejoin="bevel" enable-background="new    " d="
	M279.73,452.142l13.789-242.416l122.093-150.34l-28.8,221.732L279.73,452.142z"/>
</svg>
